<?xml version="1.0" encoding="UTF-8"?>
<svg width="18px" height="18px" viewBox="0 0 18 18" version="1.1" xmlns="http://www.w3.org/2000/svg" xmlns:xlink="http://www.w3.org/1999/xlink">
    <title>条码2备份 4</title>
    <defs>
        <rect id="path-1" x="0" y="0" width="18" height="18"></rect>
    </defs>
    <g id="页面-1" stroke="none" stroke-width="1" fill="none" fill-rule="evenodd">
        <g id="表单编辑" transform="translate(-38.000000, -561.000000)">
            <g id="条码2备份-4" transform="translate(38.000000, 561.000000)">
                <mask id="mask-2" fill="white">
                    <use xlink:href="#path-1"></use>
                </mask>
                <g id="蒙版"></g>
                <g id="编组-4" mask="url(#mask-2)" fill="currentColor">
                    <g transform="translate(3.000000, 4.000000)" id="形状结合">
                        <path d="M5.99931054,0 C6.12164687,0 6.23476834,0.0685180109 6.2959365,0.17980346 L6.2959365,0.17980346 L11.9393603,10.4368145 C11.9775408,10.4946234 12,10.5650129 12,10.6408436 C12,10.8392929 11.8465842,11 11.6572007,11 L11.6572007,11 L0.342345206,11 C0.220041904,11 0.107283743,10.9316206 0.0458513526,10.8203352 C-0.0152837842,10.7090844 -0.0152837842,10.572187 0.0458513526,10.4609015 L0.0458513526,10.4609015 L5.70284971,0.17980346 C5.76398485,0.0685180109 5.87700724,0 5.99931054,0 Z M6.41681959,8.53823832 L5.58325472,8.53823832 C5.45385036,8.53823832 5.34868868,8.64869199 5.34868868,8.78461897 L5.34868868,8.78461897 L5.34868868,9.65282569 C5.34868868,9.7888913 5.45358614,9.89934497 5.58325472,9.89934497 L5.58325472,9.89934497 L6.41681959,9.89934497 C6.54622395,9.89934497 6.65138563,9.7888913 6.65138563,9.65282569 L6.65138563,9.65282569 L6.65138563,8.78461897 C6.65138563,8.64869199 6.54648818,8.53823832 6.41681959,8.53823832 L6.41681959,8.53823832 Z M6.5339705,2.7719469 L5.46583959,2.7719469 C5.336171,2.7719469 5.23091024,2.88240057 5.23091024,3.01860481 L5.23091024,3.01860481 L5.34868868,7.73272714 C5.34868868,7.86903535 5.45358614,7.97924642 5.58325472,7.97924642 L5.58325472,7.97924642 L6.41655537,7.97924642 C6.54595973,7.97924642 6.65112141,7.86875809 6.65112141,7.73272714 L6.65112141,7.73272714 L6.76889985,3.01832755 C6.76889985,2.88240057 6.66363908,2.7719469 6.5339705,2.7719469 L6.5339705,2.7719469 Z"></path>
                    </g>
                </g>
            </g>
        </g>
    </g>
</svg>