<?xml version="1.0" encoding="UTF-8"?>
<svg width="18px" height="18px" viewBox="0 0 18 18" version="1.1" xmlns="http://www.w3.org/2000/svg" xmlns:xlink="http://www.w3.org/1999/xlink">
    <title>附件 (1)</title>
    <defs>
        <rect id="path-1" x="0" y="0" width="18" height="18"></rect>
    </defs>
    <g id="页面-1" stroke="none" stroke-width="1" fill="none" fill-rule="evenodd">
        <g id="表单编辑" transform="translate(-35.000000, -327.000000)">
            <g id="附件-(1)" transform="translate(35.000000, 327.000000)">
                <mask id="mask-2" fill="white">
                    <use xlink:href="#path-1"></use>
                </mask>
                <g id="蒙版"></g>
                <g mask="url(#mask-2)" fill="currentColor" fill-rule="nonzero" id="路径">
                    <g transform="translate(4.000000, 4.000000)">
                        <path d="M5.35776004,5.08750758 C5.66448901,4.77631947 5.66311376,4.28147352 5.35776004,3.97613024 C5.05297115,3.67132724 4.55896314,3.66966957 4.24638937,3.97613024 L1.74525897,6.47614599 C0.978694402,7.24938269 0.98064676,8.48996026 1.74525897,9.25458934 C2.51016588,10.0194886 3.75072371,10.0214286 4.52368563,9.25458934 L9.24699252,4.53124179 C10.0138395,3.76440248 10.0138395,2.51966232 9.24699252,1.75281073 C8.48041567,0.986241555 7.23541285,0.985959137 6.46857815,1.75281073 L6.3302063,1.8923008 C6.10015957,2.12234891 5.72673117,2.12234891 5.49668444,1.8923008 C5.26690785,1.66251055 5.26662543,1.2893746 5.49668444,1.05876166 L5.63504401,0.919271585 C6.86755911,-0.307123668 8.85551402,-0.305723856 10.0805267,0.919271585 C11.3055147,2.14429158 11.3074671,4.13171816 10.0805267,5.36478094 L5.35692507,10.0878338 C4.12858482,11.3067388 2.14368738,11.3039515 0.919792125,10.0800611 C-0.303808433,8.85642868 -0.306878178,6.87124917 0.912301946,5.64317169 L3.41286752,3.14257882 C4.18415949,2.37573951 5.42610485,2.37740946 6.19128189,3.14257882 C6.95645894,3.90776046 6.95812888,5.14972555 6.19128189,5.92102216 L3.82964073,8.28270207 C3.599594,8.51275018 3.22617787,8.51275018 2.99611887,8.28270207 C2.76607214,8.05264169 2.76607214,7.67922332 2.99611887,7.44917521 L5.35776004,5.0874953 L5.35776004,5.08750758 Z"></path>
                    </g>
                </g>
            </g>
        </g>
    </g>
</svg>