<?xml version="1.0" encoding="UTF-8"?>
<svg width="18px" height="18px" viewBox="0 0 18 18" version="1.1" xmlns="http://www.w3.org/2000/svg" xmlns:xlink="http://www.w3.org/1999/xlink">
    <title>条码2</title>
    <defs>
        <rect id="path-1" x="0" y="0" width="18" height="18"></rect>
    </defs>
    <g id="页面-1" stroke="none" stroke-width="1" fill="none" fill-rule="evenodd">
        <g id="表单编辑" transform="translate(-35.000000, -361.000000)">
            <g id="条码2" transform="translate(35.000000, 361.000000)">
                <mask id="mask-2" fill="white">
                    <use xlink:href="#path-1"></use>
                </mask>
                <g id="蒙版"></g>
                <g mask="url(#mask-2)" fill="currentColor" fill-rule="nonzero" id="形状">
                    <g transform="translate(4.000000, 5.000000)">
                        <path d="M4.03332034,8 L4.39998239,8 L4.39998239,2.28757528e-05 L4.03332034,2.28757528e-05 L4.03332034,8 Z M4.76664444,8 L5.13334423,8 L5.13334423,2.28757528e-05 L4.76664444,2.28757528e-05 L4.76664444,8 Z M2.19997233,8 L3.29999623,8 L3.29999623,2.28757528e-05 L2.19997233,2.28757528e-05 L2.19997233,8 Z M0,8 L1.46664821,8 L1.46664821,0 L0,0 L0,8 Z M5.50000629,8 L6.59999245,8 L6.59999245,2.28757528e-05 L5.50000629,2.28757528e-05 L5.50000629,8 Z M9.53331404,2.28757528e-05 L9.53331404,8 L11,8 L11,2.28757528e-05 L9.53331404,2.28757528e-05 Z M8.43334045,8 L9.16666457,8 L9.16666457,2.28757528e-05 L8.43334045,2.28757528e-05 L8.43334045,8 Z M6.9666545,8 L7.69997861,8 L7.69997861,2.28757528e-05 L6.9666545,2.28757528e-05 L6.9666545,8 Z"></path>
                    </g>
                </g>
            </g>
        </g>
    </g>
</svg>