<?xml version="1.0" encoding="UTF-8"?>
<svg width="18px" height="18px" viewBox="0 0 18 18" version="1.1" xmlns="http://www.w3.org/2000/svg" xmlns:xlink="http://www.w3.org/1999/xlink">
    <title>条码2备份 3</title>
    <defs>
        <rect id="path-1" x="0" y="0" width="18" height="18"></rect>
    </defs>
    <g id="页面-1" stroke="none" stroke-width="1" fill="none" fill-rule="evenodd">
        <g id="表单编辑" transform="translate(-37.000000, -527.000000)">
            <g id="条码2备份-3" transform="translate(37.000000, 527.000000)">
                <mask id="mask-2" fill="white">
                    <use xlink:href="#path-1"></use>
                </mask>
                <g id="蒙版"></g>
                <g id="栅格布局" mask="url(#mask-2)">
                    <g transform="translate(3.000000, 4.000000)" id="点击-手指">
                        <path d="M5.49919316,10.645082 L2.57339057,6.84519528 C2.57339057,6.84519528 2.42584632,5.42771635 3.74341652,6.02446884 C4.50326943,6.37883858 4.77475086,7.12439568 4.77475086,7.12439568 L4.80130883,1.33635669 C4.80130883,1.33635669 5.58771971,0.11677254 6.27084961,1.33635669 L6.28265315,5.00124541 C6.28265315,5.00124541 7.13250807,3.79853601 8.13285812,5.08561916 C8.13285812,5.08561916 8.88238294,3.77552499 9.93732436,5.14851595 C9.93732436,5.14851595 10.6838983,3.63285666 11.4348986,5.28044581 L11.4348986,9.87958201 C11.4348986,9.87958201 11.3921107,10.238554 10.7827529,10.6435479 L5.49919316,10.6435479 L5.49919316,10.645082 Z" id="路径" fill="#323333" fill-rule="nonzero"></path>
                        <path d="M11.7091121,0 C12.0428806,0 12.3134534,0.258639171 12.3134534,0.577686756 L12.3134534,3.10506632 C12.3134534,3.4241139 12.0428806,3.68275307 11.7091121,3.68275307 L7.025,3.682 L7.025,3.032 L11.6335695,3.03285547 L11.6335695,0.649897601 L0.679883929,0.649897601 L0.679883929,3.03285547 L4.079,3.032 L4.079,3.682 L0.604341271,3.68275307 C0.270572803,3.68275307 0,3.4241139 0,3.10506632 L0,0.577686756 C0,0.258639171 0.270572803,0 0.604341271,0 L11.7091121,0 Z" id="形状结合" fill="currentColor" fill-rule="nonzero"></path>
                    </g>
                </g>
            </g>
        </g>
    </g>
</svg>