<?xml version="1.0" encoding="UTF-8"?>
<svg width="18px" height="18px" viewBox="0 0 18 18" version="1.1" xmlns="http://www.w3.org/2000/svg" xmlns:xlink="http://www.w3.org/1999/xlink">
    <title>树状</title>
    <defs>
        <rect id="path-1" x="0" y="0" width="18" height="18"></rect>
    </defs>
    <g id="页面-1" stroke="none" stroke-width="1" fill="none" fill-rule="evenodd">
        <g id="表单编辑" transform="translate(-150.000000, -294.000000)">
            <g id="树状" transform="translate(150.000000, 294.000000)">
                <mask id="mask-2" fill="white">
                    <use xlink:href="#path-1"></use>
                </mask>
                <g id="蒙版"></g>
                <g mask="url(#mask-2)" fill="currentColor" fill-rule="nonzero" id="形状">
                    <g transform="translate(3.000000, 3.000000)">
                        <path d="M4.30769231,0 C4.64755985,0 4.92307692,0.268629157 4.92307692,0.600000004 L4.92307692,3 C4.92307691,3.33137085 4.64755984,3.59999999 4.30769231,3.6 L3.07692307,3.6 L3.07692307,4.80000001 L6.15384616,4.80000001 L6.15384616,4.2 C6.15384616,3.86862915 6.42936323,3.6 6.76923076,3.6 L10.4615385,3.6 C10.801406,3.6 11.0769231,3.86862915 11.0769231,4.2 L11.0769231,6.6 C11.0769231,6.93137085 10.801406,7.19999999 10.4615385,7.19999999 L6.76923076,7.19999999 C6.42936323,7.19999999 6.15384617,6.93137085 6.15384616,6.6 L6.15384616,6 L3.07692307,6 L3.07692307,9.6 L6.15384616,9.6 L6.15384616,9 C6.15384617,8.66862915 6.42936323,8.40000001 6.76923076,8.4 L10.4615385,8.4 C10.801406,8.4 11.0769231,8.66862915 11.0769231,9 L11.0769231,11.4 C11.0769231,11.7313708 10.801406,12 10.4615385,12 L6.76923076,12 C6.42936323,12 6.15384616,11.7313708 6.15384616,11.4 L6.15384616,10.8 L2.46153847,10.8 C2.12167093,10.8 1.84615385,10.5313708 1.84615385,10.2 L1.84615385,3.6 L0.61538462,3.6 C0.275517085,3.6 0,3.33137085 0,3 L0,0.600000004 C0,0.268629152 0.275517079,0 0.61538462,0 L4.30769231,0 L4.30769231,0 Z M9.84615385,9.6 L7.38461538,9.6 L7.38461538,10.8 L9.84615385,10.8 L9.84615385,9.6 Z M9.84615385,4.80000001 L7.38461538,4.80000001 L7.38461538,6 L9.84615385,6 L9.84615385,4.80000001 Z M3.69230769,1.20000001 L1.23076923,1.20000001 L1.23076923,2.4 L3.69230769,2.4 L3.69230769,1.20000001 Z"></path>
                    </g>
                </g>
            </g>
        </g>
    </g>
</svg>