<?xml version="1.0" encoding="UTF-8"?>
<svg width="18px" height="18px" viewBox="0 0 18 18" version="1.1" xmlns="http://www.w3.org/2000/svg" xmlns:xlink="http://www.w3.org/1999/xlink">
    <title>ic_checkbox_ture</title>
    <defs>
        <rect id="path-1" x="0" y="0" width="18" height="18"></rect>
    </defs>
    <g id="页面-1" stroke="none" stroke-width="1" fill="none" fill-rule="evenodd">
        <g id="表单编辑" transform="translate(-150.000000, -127.000000)">
            <g id="ic_checkbox_ture" transform="translate(150.000000, 127.000000)">
                <mask id="mask-2" fill="white">
                    <use xlink:href="#path-1"></use>
                </mask>
                <g id="蒙版"></g>
                <g mask="url(#mask-2)" fill="currentColor" fill-rule="nonzero" id="形状">
                    <g transform="translate(5.000000, 4.000000)">
                        <path d="M8.88888885,0 L1.11111112,0 C0.5,0 0,0.5 0,1.11111112 L0,8.88888885 C0,9.5 0.5,10 1.11111112,10 L8.88888885,10 C9.5,10 10,9.5 10,8.88888885 L10,1.11111112 C10,0.5 9.5,0 8.88888885,0 L8.88888885,0 Z M3.88888888,7.77777779 L1.11111112,5.1068376 L1.88888888,4.35897435 L3.88888888,6.28205128 L8.11111112,2.22222221 L8.88888885,2.97008547 L3.88888888,7.77777779 L3.88888888,7.77777779 Z"></path>
                    </g>
                </g>
            </g>
        </g>
    </g>
</svg>