<?xml version="1.0" encoding="UTF-8"?>
<svg width="15px" height="15px" viewBox="0 0 15 15" version="1.1" xmlns="http://www.w3.org/2000/svg" xmlns:xlink="http://www.w3.org/1999/xlink">
    <title>清空</title>
    <defs>
        <polygon id="path-1" points="0 0 15 0 15 15 0 15"></polygon>
    </defs>
    <g id="页面-1" stroke="none" stroke-width="1" fill="none" fill-rule="evenodd">
        <g id="表单编辑" transform="translate(-1245.000000, -15.000000)">
            <g id="清空" transform="translate(1245.000000, 15.000000)">
                <mask id="mask-2" fill="white">
                    <use xlink:href="#path-1"></use>
                </mask>
                <g id="Clip-2"></g>
                <g id="删除-(1)" mask="url(#mask-2)" fill="currentColor" fill-rule="nonzero">
                    <g transform="translate(2.000000, 1.000000)" id="形状">
                        <path d="M9.70413986,4.22774822 L0.746922976,4.22774822 C0.693475691,4.22774822 0.650991951,4.27094876 0.656473724,4.32050233 L1.4801101,12.3253091 C1.4801101,12.6975962 1.80627559,13 2.20781545,13 L8.24598828,13 C8.64752814,13 8.97369363,12.6975962 8.97369363,12.3253091 L9.79733,4.32050233 C9.80007089,4.27094876 9.75895759,4.22774822 9.70413986,4.22774822 Z M3.33706066,11.3100963 L3.06982423,11.3100963 C2.89166662,11.3100963 2.74639963,11.1754123 2.74639963,11.0102337 L2.41338193,6.23276173 C2.41338193,6.06758318 2.55864891,5.93289913 2.73680653,5.93289913 L3.00404296,5.93289913 C3.18220058,5.93289913 3.32746756,6.06758318 3.32746756,6.23276173 L3.66048526,11.0102337 C3.66048526,11.1754123 3.51521828,11.3100963 3.33706066,11.3100963 Z M5.6846299,11.0102337 C5.6846299,11.1754123 5.53936292,11.3100963 5.3612053,11.3100963 L5.09396887,11.3100963 C4.91581125,11.3100963 4.77054427,11.1754123 4.77054427,11.0102337 L4.77054427,6.23276173 C4.77054427,6.06758318 4.91581125,5.93289913 5.09396887,5.93289913 L5.3612053,5.93289913 C5.53936292,5.93289913 5.6846299,6.06758318 5.6846299,6.23276173 L5.6846299,11.0102337 Z M7.71699719,11.0102337 C7.71699719,11.1754123 7.57173021,11.3100963 7.39357259,11.3100963 L7.12633617,11.3100963 C6.94817855,11.3100963 6.80291157,11.1754123 6.80291157,11.0102337 L7.13592927,6.23276173 C7.13592927,6.06758318 7.28119625,5.93289913 7.45935387,5.93289913 L7.7265903,5.93289913 C7.90474792,5.93289913 8.0500149,6.06758318 8.0500149,6.23276173 L7.71699719,11.0102337 Z M9.92204034,1.93684874 L0.260415633,3.99522764 C0.205597905,4.00666307 0.152150619,3.97489797 0.13981663,3.9253444 L0.0192176266,3.43616176 C-0.0739725124,3.06133351 0.180929927,2.68396404 0.585210677,2.59756295 L8.97232318,0.809822766 C9.37660393,0.723421677 9.78362557,0.959754069 9.87681571,1.33458232 L9.99741471,1.82376496 C10.0097487,1.87458913 9.97685806,1.9254133 9.92204034,1.93684874 Z M3.30554047,1.60776224 C3.21646166,1.25326365 3.45628922,0.894953252 3.84001332,0.812363975 L5.18578857,0.522666205 C5.56814223,0.440076928 5.95460721,0.662432673 6.04368602,1.01820186 L6.09576286,1.22403975 L6.70286921,1.09316752 L6.66038547,0.924177149 C6.50004361,0.283792604 5.80385846,-0.117718341 5.11452552,0.0309423574 L3.67693058,0.340969796 C2.9862272,0.489630494 2.55316714,1.13509746 2.713509,1.7742114 L2.75462229,1.94066055 L3.35624687,1.81105892 L3.30554047,1.60776224 Z"></path>
                    </g>
                </g>
            </g>
        </g>
    </g>
</svg>