<?xml version="1.0" encoding="UTF-8"?>
<svg width="18px" height="18px" viewBox="0 0 18 18" version="1.1" xmlns="http://www.w3.org/2000/svg" xmlns:xlink="http://www.w3.org/1999/xlink">
    <title>条码2备份</title>
    <defs>
        <rect id="path-1" x="0" y="0" width="18" height="18"></rect>
    </defs>
    <g id="页面-1" stroke="none" stroke-width="1" fill="none" fill-rule="evenodd">
        <g id="表单编辑" transform="translate(-37.000000, -445.000000)">
            <g id="条码2备份" transform="translate(37.000000, 445.000000)">
                <mask id="mask-2" fill="white">
                    <use xlink:href="#path-1"></use>
                </mask>
                <g id="蒙版"></g>
                <g id="栅格布局" mask="url(#mask-2)" fill="currentColor" fill-rule="nonzero">
                    <g transform="translate(3.000000, 4.000000)" id="形状">
                        <path d="M11.5714286,0 C11.808122,0 12,0.186548022 12,0.41666667 L12,9.58333333 C12,9.81345198 11.808122,10 11.5714286,10 L0.428571432,10 C0.191877966,10 0,9.81345198 0,9.58333333 L0,0.41666667 C0,0.186548022 0.191877966,0 0.428571432,0 L11.5714286,0 Z M3.59914286,1 L1.02857143,1 L1.02857143,9 L3.59914286,9 L3.59914286,1 Z M7.28485714,1 L4.62771429,1 L4.62771429,9 L7.28485714,9 L7.28485714,1 Z M10.9714286,1 L8.31342857,1 L8.31342857,9 L10.9714286,9 L10.9714286,1 Z"></path>
                    </g>
                </g>
            </g>
        </g>
    </g>
</svg>