<?xml version="1.0" encoding="UTF-8"?>
<svg width="18px" height="18px" viewBox="0 0 18 18" version="1.1" xmlns="http://www.w3.org/2000/svg" xmlns:xlink="http://www.w3.org/1999/xlink">
    <title>line-sip（吸管工具）</title>
    <defs>
        <rect id="path-1" x="0" y="0" width="18" height="18"></rect>
    </defs>
    <g id="页面-1" stroke="none" stroke-width="1" fill="none" fill-rule="evenodd">
        <g id="表单编辑" transform="translate(-35.000000, -293.000000)">
            <g id="line-sip（吸管工具）" transform="translate(35.000000, 293.000000)">
                <mask id="mask-2" fill="white">
                    <use xlink:href="#path-1"></use>
                </mask>
                <g id="蒙版"></g>
                <g mask="url(#mask-2)" fill="currentColor" fill-rule="nonzero">
                    <g transform="translate(4.000000, 4.000000)">
                        <path d="M7.73575707,0.172518649 C7.84667997,0.0620634303 7.99719783,0 8.15415383,0 C8.31110983,0 8.4616277,0.0620634303 8.5725506,0.172518649 L9.82685384,1.42014467 C10.0577154,1.64984659 10.0577154,2.02219343 9.82685384,2.25189536 L8.15444952,3.91598494 L6.06335275,1.83543179 L7.73575707,0.171930433 L7.73575707,0.172518649 Z M5.01780435,0.796625782 L9.19940654,4.95537918 L8.36320437,5.78771809 L4.18219356,1.62837645 L5.01780435,0.796625782 L5.01780435,0.796625782 Z" id="形状"></path>
                        <polygon id="路径" points="5.85459788 3.29187783 5.01780435 2.46012714 0 7.45121946 0 10 2.50919787 9.94705972 7.52700222 4.95596741 6.69080005 4.1236285 2.09109679 8.69943369 1.25430324 7.86709479"></polygon>
                    </g>
                </g>
            </g>
        </g>
    </g>
</svg>