<?xml version="1.0" encoding="UTF-8"?>
<svg width="18px" height="18px" viewBox="0 0 18 18" version="1.1" xmlns="http://www.w3.org/2000/svg" xmlns:xlink="http://www.w3.org/1999/xlink">
    <title>riqi (2)</title>
    <defs>
        <rect id="path-1" x="0" y="0" width="18" height="18"></rect>
    </defs>
    <g id="页面-1" stroke="none" stroke-width="1" fill="none" fill-rule="evenodd">
        <g id="表单编辑" transform="translate(-150.000000, -228.000000)">
            <g id="riqi-(2)" transform="translate(150.000000, 228.000000)">
                <mask id="mask-2" fill="white">
                    <use xlink:href="#path-1"></use>
                </mask>
                <g id="蒙版"></g>
                <g mask="url(#mask-2)" fill="currentColor">
                    <g transform="translate(4.000000, 3.000000)">
                        <path d="M1.37497482,11 L0.687487411,11 C0.275000336,11 0,10.7249997 0,10.3125126 L0,0.687487411 C0,0.275000336 0.275000336,0 0.687487411,0 L1.37497482,0 L1.37497482,11 Z" id="Fill-1"></path>
                        <path d="M10.3125126,11 L9.62502518,11 L9.62502518,0 L10.3125126,0 C10.7249997,0 11,0.275000336 11,0.687487411 L11,10.3125126 C11,10.7249997 10.7249997,11 10.3125126,11 Z" id="Fill-3"></path>
                        <polygon id="Fill-4" points="1.37497482 11 9.62501175 11 9.62501175 9.62502518 1.37497482 9.62502518"></polygon>
                        <polygon id="Fill-5" points="1.37497482 3.4375042 9.62501175 3.4375042 9.62501175 2.06252937 1.37497482 2.06252937"></polygon>
                        <polygon id="Fill-6" points="4.12499161 2.06252937 6.87500839 2.06252937 6.87500839 9.09494702e-13 4.12499161 9.09494702e-13"></polygon>
                        <polygon id="Fill-7" points="2.75001678 6.18750755 4.12499161 6.18750755 4.12499161 4.81247902 2.75001678 4.81247902"></polygon>
                        <polygon id="Fill-8" points="2.06252937 1.37497482 3.4375042 1.37497482 3.4375042 0 2.06252937 0"></polygon>
                        <polygon id="Fill-9" points="7.5624958 1.37497482 8.93752434 1.37497482 8.93752434 0 7.5624958 0"></polygon>
                        <polygon id="Fill-10" points="4.81247902 6.18750755 6.18750755 6.18750755 6.18750755 4.81247902 4.81247902 4.81247902"></polygon>
                        <polygon id="Fill-11" points="6.87500839 6.18750755 8.24998322 6.18750755 8.24998322 4.81247902 6.87500839 4.81247902"></polygon>
                        <polygon id="Fill-12" points="2.75001678 8.24998322 4.12499161 8.24998322 4.12499161 6.87500839 2.75001678 6.87500839"></polygon>
                        <polygon id="Fill-13" points="4.81247902 8.24998322 6.18750755 8.24998322 6.18750755 6.87500839 4.81247902 6.87500839"></polygon>
                        <polygon id="Fill-14" points="6.87500839 8.24998322 8.24998322 8.24998322 8.24998322 6.87500839 6.87500839 6.87500839"></polygon>
                    </g>
                </g>
            </g>
        </g>
    </g>
</svg>