<?xml version="1.0" encoding="UTF-8"?>
<svg width="18px" height="18px" viewBox="0 0 18 18" version="1.1" xmlns="http://www.w3.org/2000/svg" xmlns:xlink="http://www.w3.org/1999/xlink">
    <title>列表</title>
    <defs>
        <rect id="path-1" x="0" y="0" width="18" height="18"></rect>
    </defs>
    <g id="页面-1" stroke="none" stroke-width="1" fill="none" fill-rule="evenodd">
        <g id="表单编辑" transform="translate(-150.000000, -329.000000)">
            <g id="列表" transform="translate(150.000000, 329.000000)">
                <mask id="mask-2" fill="white">
                    <use xlink:href="#path-1"></use>
                </mask>
                <g id="蒙版"></g>
                <g mask="url(#mask-2)" fill="currentColor" fill-rule="nonzero" id="形状">
                    <g transform="translate(4.000000, 3.000000)">
                        <path d="M4.55542735,6.54522592 C4.87711902,6.54522592 5.14120884,6.80325258 5.17342682,7.1332048 L5.17635573,7.2001006 L5.17635573,11.3456283 C5.17635573,11.6846341 4.93228011,11.9632828 4.61888702,11.9969821 L4.55542735,12 L0.620928375,12 C0.29972486,12 0.0351468891,11.7424763 0.00341705867,11.4125241 L0,11.3456283 L0,7.2001006 C0,6.86109481 0.24456377,6.58244614 0.557956865,6.54874675 L0.621416526,6.5457289 L4.55542735,6.5457289 L4.55542735,6.54522592 Z M10.9023698,10.0001677 C10.9560664,10.0001677 11,10.0454355 11,10.1007628 L11,11.2329617 C11,11.2885189 10.9562894,11.3335569 10.9023698,11.3335569 L5.92127452,11.3335569 C5.86735482,11.3335569 5.82364427,11.2885189 5.82364427,11.2329617 L5.82364427,10.1007628 C5.82364427,10.0454355 5.86757788,10.0001677 5.92127452,10.0001677 L10.9023698,10.0001677 L10.9023698,10.0001677 Z M4.1414751,7.63618074 L1.03488062,7.63618074 L1.03488062,10.9095482 L4.1404988,10.9095482 L4.1404988,7.63668371 L4.1414751,7.63618074 Z M10.9023698,7.33338922 C10.9560664,7.33338922 11,7.37865705 11,7.43398441 L11,8.56618325 C11,8.62174044 10.9562894,8.66677844 10.9023698,8.66677844 L5.92127452,8.66677844 C5.86735482,8.66677844 5.82364427,8.62174044 5.82364427,8.56618325 L5.82364427,7.43448738 C5.82364427,7.37865705 5.86757788,7.3338922 5.92127452,7.3338922 L10.9023698,7.3338922 L10.9023698,7.33338922 Z M4.55542735,0 C4.87711902,0 5.14120884,0.257523682 5.17342682,0.587475899 L5.17635573,0.654371699 L5.17635573,4.7998994 C5.17635573,5.13890519 4.93228011,5.41755386 4.61888702,5.45125325 L4.55542735,5.45477408 L0.620928375,5.45477408 C0.29972486,5.45477408 0.0351468891,5.19674742 0.00341705867,4.8667952 L0,4.7998994 L0,0.654371699 C0,0.315365915 0.24456377,0.0367172437 0.557956865,0.00301785565 L0.621416526,0 L4.55542735,0 L4.55542735,0 Z M10.9023698,3.33322156 C10.9560664,3.33322156 11,3.3784894 11,3.43381675 L11,4.56601559 C11,4.62157278 10.9562894,4.66661078 10.9023698,4.66661078 L5.92127452,4.66661078 C5.86735482,4.66661078 5.82364427,4.62157278 5.82364427,4.56601559 L5.82364427,3.43431973 C5.82364427,3.3784894 5.86757788,3.33372454 5.92127452,3.33372454 L10.9023698,3.33372454 L10.9023698,3.33322156 Z M4.1414751,1.09095482 L1.03488062,1.09095482 L1.03488062,4.36381926 L4.1404988,4.36381926 L4.1404988,1.09095482 L4.1414751,1.09095482 Z M10.9023698,0.666443122 C10.9560664,0.666443122 11,0.711710956 11,0.76703831 L11,1.89923715 C11,1.95479434 10.9562894,1.99983234 10.9023698,1.99983234 L5.92127452,1.99983234 C5.89538137,1.99983234 5.87054873,1.98923395 5.85223951,1.97036869 C5.83393029,1.95150344 5.82364427,1.92591666 5.82364427,1.89923715 L5.82364427,0.767541286 C5.82364427,0.711710956 5.86757788,0.666946098 5.92127452,0.666946098 L10.9023698,0.666946098 L10.9023698,0.666443122 Z"></path>
                    </g>
                </g>
            </g>
        </g>
    </g>
</svg>