<?xml version="1.0" encoding="UTF-8"?>
<svg width="18px" height="18px" viewBox="0 0 18 18" version="1.1" xmlns="http://www.w3.org/2000/svg" xmlns:xlink="http://www.w3.org/1999/xlink">
    <title>分割线</title>
    <defs>
        <rect id="path-1" x="0" y="0" width="18" height="18"></rect>
    </defs>
    <g id="页面-1" stroke="none" stroke-width="1" fill="none" fill-rule="evenodd">
        <g id="表单编辑" transform="translate(-154.000000, -528.000000)">
            <g id="分割线" transform="translate(154.000000, 528.000000)">
                <mask id="mask-2" fill="white">
                    <use xlink:href="#path-1"></use>
                </mask>
                <g id="蒙版"></g>
                <g mask="url(#mask-2)" fill="currentColor" fill-rule="nonzero" id="形状">
                    <g transform="translate(2.000000, 2.000000)">
                        <path d="M13.3333398,11.254 L11.6358379,13 L10.6774943,13 L13.3333398,10.2682763 L13.3333398,11.254 L13.3333398,11.254 Z M13.3333205,12.537137 L13.3333205,13 L12.8833336,13 L13.3333398,12.537137 L13.3333205,12.537137 Z M13.3333398,8.98513925 L9.43001788,13 L8.47167427,13 L12.6383345,8.71427722 L13.3333398,8.71427722 L13.3333398,8.98513925 L13.3333398,8.98513925 Z M11.3908388,8.71427722 L7.22414006,13 L6.26581571,13 L10.432476,8.71427722 L11.3908388,8.71427722 L11.3908388,8.71427722 Z M9.18419045,8.71427722 L5.01751094,13 L4.0591866,13 L8.22584684,8.71427722 L9.18419045,8.71427722 L9.18419045,8.71427722 Z M6.97833189,8.71427722 L2.81167165,13 L1.85332804,13 L6.02000755,8.71427722 L6.97833189,8.71427722 L6.97833189,8.71427722 Z M4.7724926,8.71427722 L1.66667951,11.9088441 L1.66667951,10.9325718 L3.82335717,8.71427722 L4.77335948,8.71427722 L4.7724926,8.71427722 Z M2.57582296,8.71427722 L1.66666025,9.6494348 L1.66666025,8.71427722 L2.57584222,8.71427722 L2.57582296,8.71427722 Z M13.3333398,1.25400993 L11.2191584,3.42857426 L10.2608341,3.42857426 L13.3333398,0.268286159 L13.3333398,1.25400993 L13.3333398,1.25400993 Z M13.3333398,2.53714693 L13.3333398,3.42857426 L12.4666541,3.42857426 L13.3333398,2.53714693 Z M12.3466589,0 L9.01333837,3.42857426 L8.05499476,3.42857426 L11.3883345,0 L12.3466589,0 L12.3466589,0 Z M10.1408388,0 L6.80749908,3.42857426 L5.84917473,3.42857426 L9.18249522,0 L10.1408388,0 L10.1408388,0 Z M4.60000308,3.42857426 L3.64165947,3.42857426 L6.97499923,0 L7.93334284,0 L4.60000308,3.42857426 Z M5.72833189,0 L2.39499214,3.42857426 L1.66667951,3.42857426 L1.66667951,3.19286287 L4.77085517,0 L5.72917951,0 L5.72833189,0 Z M3.5224926,0 L1.66666025,1.90885404 L1.66666025,0.932581709 L2.57333791,0 L3.52334022,0 L3.5224926,0 Z M0,5.14285148 L15,5.14285148 L15,7.14285148 L0,7.14285148 L0,5.14285148 Z"></path>
                    </g>
                </g>
            </g>
        </g>
    </g>
</svg>