<?xml version="1.0" encoding="UTF-8"?>
<svg width="18px" height="18px" viewBox="0 0 18 18" version="1.1" xmlns="http://www.w3.org/2000/svg" xmlns:xlink="http://www.w3.org/1999/xlink">
    <title>编辑器</title>
    <defs>
        <rect id="path-1" x="0" y="0" width="18" height="18"></rect>
    </defs>
    <g id="页面-1" stroke="none" stroke-width="1" fill="none" fill-rule="evenodd">
        <g id="表单编辑" transform="translate(-150.000000, -261.000000)">
            <g id="编辑器" transform="translate(150.000000, 261.000000)">
                <mask id="mask-2" fill="white">
                    <use xlink:href="#path-1"></use>
                </mask>
                <g id="蒙版"></g>
                <g mask="url(#mask-2)" fill="currentColor" fill-rule="nonzero" id="形状结合">
                    <g transform="translate(4.000000, 4.000000)">
                        <path d="M9.76250378,0 C10.4446977,0.00302123101 10.9968277,0.55530226 11,1.23749622 L11,9.76250378 C10.9969788,10.4446977 10.4446977,10.9968277 9.76250378,11 L1.23749622,11 C0.55530226,10.9969788 0.00317229257,10.4446977 0,9.76250378 L0,1.23749622 C0.00302123101,0.55530226 0.55530226,0.00317229257 1.23749622,0 L9.76250378,0 Z M9.24753495,8.77018045 L1.75986707,8.77018045 C1.54943833,8.77018045 1.38402593,8.96580516 1.38402593,9.20629515 C1.38402593,9.4469362 1.55684034,9.64240984 1.75986707,9.64240984 L1.75986707,9.64240984 L9.24768601,9.64240984 C9.45811475,9.64240984 9.62352715,9.4469362 9.62352715,9.20629515 C9.62352715,8.96580516 9.45811475,8.76277843 9.24753495,8.77018045 L9.24753495,8.77018045 Z M9.24753495,6.90592985 L1.75986707,6.90592985 C1.54943833,6.90592985 1.38402593,7.1014035 1.38402593,7.34189349 C1.38402593,7.58253454 1.55684034,7.77800818 1.75986707,7.77800818 L1.75986707,7.77800818 L9.24768601,7.77800818 C9.45811475,7.77800818 9.62352715,7.58253454 9.62352715,7.34189349 C9.62352715,7.1014035 9.45811475,6.90592985 9.24753495,6.90592985 L9.24753495,6.90592985 Z M4.962523,1.35789228 L1.83509572,1.35789228 C1.57949957,1.35789228 1.37647285,1.55321486 1.37647285,1.79385591 C1.37647285,2.0343459 1.58705265,2.22981955 1.83509572,2.22981955 L1.83509572,2.22981955 L2.97772529,2.22981955 L2.97772529,5.28972232 C2.97772529,5.40996732 3.02274163,5.52281029 3.10552336,5.60544096 C3.18075201,5.68051855 3.28589085,5.72568596 3.39118075,5.72568596 L3.39118075,5.72568596 L3.40628691,5.72568596 C3.63937488,5.72568596 3.81974237,5.52265923 3.81974237,5.28957126 L3.81974237,5.28957126 L3.81974237,2.22226647 L4.962523,2.22226647 C5.21056607,2.21486446 5.41359279,2.02679283 5.41359279,1.78630284 L5.41359279,1.78630284 C5.41359279,1.54566179 5.21056607,1.3503392 4.962523,1.35789228 L4.962523,1.35789228 Z M9.23998187,4.10192535 L5.90967893,4.10192535 C5.69925019,4.10192535 5.53383779,4.29724793 5.53383779,4.53788898 C5.53383779,4.77837897 5.7066522,4.97385262 5.90967893,4.97385262 L5.90967893,4.97385262 L9.27019418,4.97385262 C9.46566783,4.96629954 9.62352715,4.76342388 9.61597407,4.53788898 L9.61597407,4.53788898 C9.60842099,4.40253783 9.56325359,4.28214178 9.48047186,4.19966217 C9.41279629,4.13953967 9.33016562,4.10192535 9.23998187,4.10192535 L9.23998187,4.10192535 Z M9.23998187,2.37257272 L5.90967893,2.37257272 C5.69925019,2.37257272 5.53383779,2.56804636 5.53383779,2.80853635 C5.53383779,3.0491774 5.7066522,3.24465105 5.90967893,3.24465105 L5.90967893,3.24465105 L9.2174737,3.24465105 L9.22502678,3.25220413 L9.27019418,3.25220413 C9.46566783,3.24480211 9.62352715,3.04177539 9.61597407,2.81624049 L9.61597407,2.81624049 C9.60842099,2.68088934 9.56325359,2.56064435 9.48047186,2.47786262 C9.41279629,2.41018704 9.33016562,2.37257272 9.23998187,2.37257272 L9.23998187,2.37257272 Z"></path>
                    </g>
                </g>
            </g>
        </g>
    </g>
</svg>