<?xml version="1.0" encoding="UTF-8"?>
<svg width="15px" height="15px" viewBox="0 0 15 15" version="1.1" xmlns="http://www.w3.org/2000/svg" xmlns:xlink="http://www.w3.org/1999/xlink">
    <title>帮助</title>
    <defs>
        <polygon id="path-1" points="0 0 15 0 15 15 0 15"></polygon>
    </defs>
    <g id="页面-1" stroke="none" stroke-width="1" fill="none" fill-rule="evenodd">
        <g id="表单编辑" transform="translate(-1305.000000, -15.000000)">
            <g id="帮助" transform="translate(1305.000000, 15.000000)">
                <mask id="mask-2" fill="white">
                    <use xlink:href="#path-1"></use>
                </mask>
                <g id="Clip-2"></g>
                <path d="M7.5,13 C4.46242448,13 2,10.5375755 2,7.5 C2,4.46242448 4.46242448,2 7.5,2 C10.5375755,2 13,4.46242448 13,7.5 C13,10.5375755 10.5375755,13 7.5,13 Z M7.59533333,4.37190365 C8.16736198,4.37190365 8.63374479,4.52144922 8.98571615,4.83828646 C9.33775911,5.14628646 9.51371615,5.56869792 9.51371615,6.10547786 C9.51371615,6.54544922 9.39934766,6.90627214 9.18814193,7.18786068 C9.10892188,7.275875 8.85374479,7.51347786 8.43131901,7.88308073 C8.2729362,8.01506641 8.15852474,8.16466927 8.07934766,8.32306641 C7.99134766,8.49908073 7.94730469,8.683875 7.94730469,8.89508073 L7.94730469,9.01828646 L6.93530469,9.01828646 L6.93530469,8.89508073 C6.93530469,8.56068359 6.9881276,8.27024349 7.11131901,8.03268359 C7.22574479,7.79508073 7.56892188,7.42547786 8.14095052,6.91505208 L8.24652474,6.79186068 C8.40492188,6.59827214 8.48414193,6.38706641 8.48414193,6.16708073 C8.48414193,5.87669792 8.3961276,5.647875 8.23774479,5.48069792 C8.07051042,5.31346354 7.83295052,5.23428646 7.53373047,5.23428646 C7.14651042,5.23428646 6.87370182,5.34865495 6.70653906,5.59505208 C6.55692188,5.79747786 6.48653906,6.08784635 6.48653906,6.45744922 L5.48331901,6.45744922 C5.48331901,5.80625781 5.6681276,5.29588932 6.05534766,4.92630078 C6.43373047,4.55669792 6.94414193,4.37190365 7.59533333,4.37190365 Z M7.15625,9.70002865 L7.72916667,9.70002865 C7.85572396,9.70002865 7.95833333,9.80258073 7.95833333,9.92919531 L7.95833333,10.5708047 C7.95833333,10.6974193 7.85572396,10.7999714 7.72916667,10.7999714 L7.15625,10.7999714 C7.02969271,10.7999714 6.92708333,10.6974193 6.92708333,10.5708047 L6.92708333,9.92919531 C6.92708333,9.80258073 7.02969271,9.70002865 7.15625,9.70002865 Z" id="Fill-1" fill="currentColor" mask="url(#mask-2)"></path>
            </g>
        </g>
    </g>
</svg>