<?xml version="1.0" encoding="UTF-8"?>
<svg width="18px" height="18px" viewBox="0 0 18 18" version="1.1" xmlns="http://www.w3.org/2000/svg" xmlns:xlink="http://www.w3.org/1999/xlink">
    <title>计数器</title>
    <defs>
        <rect id="path-1" x="0" y="0" width="18" height="18"></rect>
    </defs>
    <g id="页面-1" stroke="none" stroke-width="1" fill="none" fill-rule="evenodd">
        <g id="表单编辑" transform="translate(-150.000000, -160.000000)">
            <g id="计数器" transform="translate(150.000000, 160.000000)">
                <mask id="mask-2" fill="white">
                    <use xlink:href="#path-1"></use>
                </mask>
                <g id="蒙版"></g>
                <g mask="url(#mask-2)" id="编组-2">
                    <g transform="translate(4.000000, 5.000000)">
                        <path d="M8.8888889,5.13733906 C9.50253862,5.13733906 10,5.63144541 10,6.24095648 L10,7.8963826 C10,8.50589365 9.50253861,9 8.8888889,9 L1.1111111,9 C0.497461388,9 0,8.50589365 0,7.8963826 L0,6.24095648 C0,5.63144541 0.497461383,5.13733906 1.1111111,5.13733906 L8.8888889,5.13733906 Z M7.5,5.74432863 C7.37777778,5.74432863 7.27777778,5.84365421 7.27777778,5.96505212 L7.27777778,5.96505212 L7.27722222,6.84739424 L6.38888888,6.84794604 L6.34444444,6.85236051 C6.23256029,6.87492601 6.15609466,6.97802873 6.16756834,7.09085207 C6.17904202,7.20367542 6.2747215,7.28950701 6.38888888,7.28939302 L6.38888888,7.28939302 L7.27722222,7.2888412 L7.27777778,8.17228694 L7.28222223,8.21643165 C7.30494097,8.32756119 7.40874376,8.40351107 7.52233316,8.39211477 C7.63592257,8.38071847 7.72233696,8.28568431 7.72222222,8.17228694 L7.72222222,8.17228694 L7.72166667,7.2888412 L8.61111112,7.28939302 L8.65555556,7.28497855 C8.76743971,7.26241305 8.84390534,7.15931033 8.83243166,7.04648699 C8.82095798,6.93366364 8.7252785,6.84783205 8.61111112,6.84794604 L8.61111112,6.84794604 L7.72166667,6.84739424 L7.72222222,5.96505212 L7.71777777,5.92090743 C7.69665473,5.81812395 7.60561525,5.74432863 7.5,5.74432863 Z" id="形状结合" fill="currentColor" fill-rule="nonzero"></path>
                        <path d="M8.8888889,0 C9.50253861,0 10,0.494106345 10,1.1036174 L10,2.75904352 C10,3.36855459 9.50253862,3.86266094 8.8888889,3.86266094 L1.1111111,3.86266094 C0.497461383,3.86266094 0,3.36855459 0,2.75904352 L0,1.1036174 C0,0.494106345 0.497461388,0 1.1111111,0 L8.8888889,0 Z M3.88888888,1.71060687 L1.66666667,1.71060687 L1.62222221,1.71502145 C1.51033806,1.73758695 1.43387242,1.84068967 1.44534611,1.95351302 C1.45681979,2.06633636 1.55249928,2.15216796 1.66666667,2.15205407 L1.66666667,2.15205407 L3.88888888,2.15205407 L3.93333333,2.14763949 C4.04521748,2.12507399 4.12168311,2.02197127 4.11020943,1.90914793 C4.09873575,1.79632458 4.00305626,1.71049299 3.88888888,1.71060687 L3.88888888,1.71060687 Z" id="形状结合" fill="#323333" fill-rule="nonzero"></path>
                    </g>
                </g>
            </g>
        </g>
    </g>
</svg>