<?xml version="1.0" encoding="UTF-8"?>
<svg width="18px" height="18px" viewBox="0 0 18 18" version="1.1" xmlns="http://www.w3.org/2000/svg" xmlns:xlink="http://www.w3.org/1999/xlink">
    <title>单行文本</title>
    <defs>
        <rect id="path-1" x="0" y="0" width="18" height="18"></rect>
    </defs>
    <g id="页面-1" stroke="none" stroke-width="1" fill="none" fill-rule="evenodd">
        <g id="表单编辑" transform="translate(-35.000000, -94.000000)">
            <g id="单行文本" transform="translate(35.000000, 94.000000)">
                <mask id="mask-2" fill="white">
                    <use xlink:href="#path-1"></use>
                </mask>
                <use id="蒙版" fill-opacity="0" fill="#FFFFFF" xlink:href="#path-1"></use>
                <g mask="url(#mask-2)" fill="currentColor" fill-rule="nonzero">
                    <g transform="translate(2.000000, 3.000000)">
                        <path d="M2.37111527,6.05537585 L5.96950099,6.05537585 L6.85101214,8.33750226 L8.08394152,8.33750226 L4.79234425,0 L3.59846351,0 L0.30690513,8.33750226 L1.53985396,8.33750226 L2.37111527,6.05537585 Z M4.01687502,1.64707751 C4.06895283,1.51074173 4.11539114,1.31701212 4.15634553,1.0657871 L4.18423185,1.0657871 C4.23257592,1.34213461 4.27722515,1.53588456 4.31817954,1.64707751 L5.62360558,5.11339375 L2.72259183,5.11339375 L4.01687502,1.64707751 Z" id="形状"></path>
                        <polygon id="路径" points="6.74460487e-14 9.98538547 15 9.98538547 15 12.0053134 6.74460487e-14 12.0053134"></polygon>
                        <path d="M9.22755299,8.00916316 C9.58089643,8.32135644 10.0569086,8.4774937 10.655745,8.4774937 C11.4888732,8.4774937 12.1193102,8.12405239 12.5469977,7.41712917 L12.5749424,7.41712917 L12.5749424,8.33750226 L13.6572195,8.33750226 L13.6572195,4.50515299 C13.6572195,2.99806693 12.9133703,2.24457467 11.4257108,2.24457467 C10.6223553,2.24457467 9.91384044,2.42936823 9.30012742,2.79895536 L9.30012742,3.81624403 C9.91004836,3.3353827 10.5850957,3.09492158 11.325289,3.09492158 C12.1583588,3.09492158 12.5749424,3.58130701 12.5749424,4.5536514 L10.7450823,4.80126137 C9.38009157,4.98426772 8.69763509,5.63196927 8.69763509,6.7443051 C8.69763509,7.27537082 8.87420957,7.69701047 9.22755299,8.00916316 Z M10.0839198,5.90462053 C10.2754292,5.72524954 10.6241444,5.60321145 11.1299486,5.53862813 L12.5749423,5.35023984 L12.5749423,5.92076637 C12.5749423,6.40883749 12.4205758,6.81425007 12.1119205,7.13726817 C11.8031679,7.4601644 11.4107564,7.621643 10.9347248,7.621643 C10.5924854,7.621643 10.3172975,7.53193719 10.1090641,7.35252557 C9.90073345,7.17315457 9.79661672,6.94167012 9.79661672,6.65815344 C9.79661672,6.33523686 9.89235203,6.08413369 10.0839198,5.90462053 Z" id="形状"></path>
                    </g>
                </g>
            </g>
        </g>
    </g>
</svg>