<?xml version="1.0" encoding="UTF-8"?>
<svg width="18px" height="18px" viewBox="0 0 18 18" version="1.1" xmlns="http://www.w3.org/2000/svg" xmlns:xlink="http://www.w3.org/1999/xlink">
    <title>条码2备份 5</title>
    <defs>
        <rect id="path-1" x="0" y="0" width="18" height="18"></rect>
    </defs>
    <g id="页面-1" stroke="none" stroke-width="1" fill="none" fill-rule="evenodd">
        <g id="表单编辑" transform="translate(-155.000000, -561.000000)">
            <g id="条码2备份-5" transform="translate(155.000000, 561.000000)">
                <mask id="mask-2" fill="white">
                    <use xlink:href="#path-1"></use>
                </mask>
                <g id="蒙版"></g>
                <g id="链接" mask="url(#mask-2)" fill="currentColor" fill-rule="nonzero">
                    <g transform="translate(3.000000, 3.000000)" id="路径">
                        <path d="M7.48873839,4.62387454 C7.396825,4.53199357 7.29885406,4.44916831 7.1979,4.37237001 L7.19771736,4.37253742 C7.09381064,4.27260528 6.95272152,4.21105706 6.79717344,4.21105706 C6.47791937,4.21105706 6.21913424,4.46985179 6.21913424,4.7890837 C6.21913424,4.93033717 6.26987762,5.05971931 6.35405926,5.16012327 L6.35404404,5.16012327 C6.35405926,5.16013848 6.3540897,5.16016893 6.35412015,5.16018414 C6.39455961,5.20841517 6.44266992,5.24999523 6.4966856,5.28291531 C6.5511883,5.32785889 6.6046865,5.37211761 6.65471453,5.42214456 L6.70236826,5.46981246 C7.30145668,6.06814211 7.12260681,7.09899866 6.5235184,7.69808928 L3.9670811,10.2537101 C3.3680079,10.8520398 2.39405164,10.8520398 1.79494801,10.2537101 L1.7469138,10.2056465 C1.14779494,9.60658631 1.14779494,8.63193588 1.7469138,8.03432156 L2.87632682,6.90531356 C3.02123614,6.79029875 3.11426059,6.6127769 3.11426059,6.41343007 C3.11426059,6.06669626 2.83317821,5.78561998 2.48643687,5.78561998 C2.3555908,5.78561998 2.23413544,5.82567807 2.13356189,5.89415123 C2.13324228,5.89348157 2.13290744,5.89284235 2.13257259,5.89215746 L2.1205336,5.90342 C2.07607608,5.93538124 2.03588013,5.9728672 2.00116338,6.01511692 L0.827460247,7.11336602 C-0.275820082,8.21738337 -0.275820082,10.0230108 0.827460247,11.125491 L0.875113974,11.1731285 C1.9783943,12.2756238 3.78328476,12.2756238 4.88656509,11.1731285 L7.4422414,8.61674667 C8.54399973,7.51355118 8.63741991,5.77326163 7.5356768,4.67076624 L7.48873839,4.62387454 Z"></path>
                        <path d="M11.1726406,0.875094968 L11.1249868,0.827442276 C10.0217217,-0.275814092 8.21683126,-0.275814092 7.11355093,0.827442276 L4.55787464,3.38380885 C3.45459431,4.48706521 3.3938362,6.08022652 4.49711652,7.18419822 L4.54400924,7.2303746 C4.59411338,7.28046244 4.64612001,7.32768897 4.69920726,7.37298261 C4.73763768,7.41590199 4.78278011,7.45264221 4.83296035,7.48169649 C4.83334086,7.48200088 4.83373658,7.4823205 4.83411707,7.48262489 L4.83428448,7.4824727 C4.91426542,7.52846644 5.00693981,7.55491818 5.10583916,7.55491818 C5.40722498,7.55491818 5.65153592,7.3105821 5.65153592,7.00923327 C5.65153592,6.92417072 5.63205436,6.84365883 5.59732239,6.77188301 L5.59732239,6.77188301 C5.52517974,6.6099004 5.39013296,6.51129236 5.29672801,6.41787423 L5.24982006,6.37172829 C4.65074687,5.77266811 4.87823973,4.90233308 5.47731294,4.30327289 L8.03449603,1.74763686 C8.63209289,1.14854623 9.60638399,1.14854623 10.2054876,1.74763686 L10.2531718,1.79452856 C10.8522602,2.39363441 10.8522602,3.36866532 10.2531718,3.96699497 L9.12745721,5.09344607 C8.97431388,5.20690848 8.87500358,5.38890491 8.87500358,5.5941113 C8.87500358,5.93802947 9.15381819,6.21685325 9.49775906,6.21685325 C9.61746411,6.21685325 9.72923957,6.18300477 9.82415129,6.12447004 C9.82486662,6.1256876 9.8255363,6.12681386 9.82625164,6.12804665 L9.84370894,6.11192906 C9.89749631,6.0759194 9.94527179,6.03170634 9.98543729,5.98116192 L11.1718339,4.88645899 C12.2759209,3.78321781 12.2759209,1.97833611 11.1726406,0.875094968 Z"></path>
                    </g>
                </g>
            </g>
        </g>
    </g>
</svg>