<?xml version="1.0" encoding="UTF-8"?>
<svg width="18px" height="18px" viewBox="0 0 18 18" version="1.1" xmlns="http://www.w3.org/2000/svg" xmlns:xlink="http://www.w3.org/1999/xlink">
    <title>mianxing-biaodanbianji</title>
    <defs>
        <rect id="path-1" x="0" y="0" width="18" height="18"></rect>
    </defs>
    <g id="页面-1" stroke="none" stroke-width="1" fill="none" fill-rule="evenodd">
        <g id="首页" transform="translate(-39.000000, -471.000000)">
            <g id="mianxing-biaodanbianji" transform="translate(39.000000, 471.000000)">
                <mask id="mask-2" fill="white">
                    <use xlink:href="#path-1"></use>
                </mask>
                <g id="蒙版"></g>
                <g mask="url(#mask-2)" fill="currentColor">
                    <g transform="translate(3.000000, 2.000000)">
                        <path d="M8.3999978,4.47369233 L11.4375436,4.5112936 C11.8500585,4.5112936 12.0750147,3.98494187 11.7375365,3.72182107 L8.24996841,0.225519523 C7.94997556,-0.0752025446 7.49997528,0.150405089 7.49997528,0.526351729 L7.49997528,3.57141598 C7.49997528,4.06014441 7.91246821,4.47369233 8.3999978,4.47369233 Z" id="Fill-1"></path>
                        <path d="M11.6249924,9.21050545 C11.8500585,9.36091054 11.9624927,9.58643006 12,9.77443642 L12,5.60148819 C12,5.22556358 11.7000071,4.92481948 11.3250216,4.88721821 L8.10002692,4.84961694 C7.46246793,4.84961694 6.97502623,4.36088851 6.97502623,3.72182107 L6.97502623,0.71426998 C6.97502623,0.33832334 6.67496745,0 6.26247453,0 L1.2750081,0 C0.562544289,0 0,0.563953002 0,1.24059968 L0,13.7594003 C0,14.436047 0.562544289,15 1.2750081,15 L10.6874626,15 C11.4000363,15 11.9624927,14.436047 11.9624927,13.7594003 L11.9624927,10.1127818 C11.9249853,10.3007 11.8500585,10.4511051 11.7375365,10.5639089 L11.3625289,10.9398556 L10.0875208,9.6616326 L10.4625064,9.28570799 C10.7624773,9.06018847 11.2500069,8.98498592 11.6249924,9.21050545 Z M2.62496498,5.63908946 L5.99998901,5.63908946 C6.41250391,5.63908946 6.74998215,5.9774128 6.74998215,6.39096072 C6.74998215,6.8044866 6.41250391,7.14283197 5.99998901,7.14283197 L2.62496498,7.14283197 C2.21245008,7.14283197 1.87497185,6.8044866 1.87497185,6.39096072 C1.87497185,5.9774128 2.21245008,5.63908946 2.62496498,5.63908946 Z M1.87497185,9.77443642 C1.87497185,9.36091054 2.21245008,9.0225872 2.62496498,9.0225872 L7.1249897,9.0225872 C7.53748263,9.0225872 7.87496086,9.36091054 7.87496086,9.77443642 C7.87496086,10.1879843 7.53748263,10.5263077 7.1249897,10.5263077 L2.62496498,10.5263077 C2.21245008,10.5263077 1.87497185,10.1879843 1.87497185,9.77443642 Z M10.950036,11.3909827 L7.80003406,14.5864521 C7.76252671,14.6240754 7.72501936,14.6616767 7.65000467,14.6616767 L6.5625333,14.8495949 C6.37499657,14.8871962 6.26247453,14.7367911 6.26247453,14.5488508 L6.45001126,13.4586562 C6.45001126,13.421055 6.48751861,13.3458524 6.52502596,13.3082511 L9.67500591,10.1503831 L10.950036,11.3909827 Z" id="Fill-3"></path>
                    </g>
                </g>
            </g>
        </g>
    </g>
</svg>