<?xml version="1.0" encoding="UTF-8"?>
<svg width="18px" height="18px" viewBox="0 0 18 18" version="1.1" xmlns="http://www.w3.org/2000/svg" xmlns:xlink="http://www.w3.org/1999/xlink">
    <title>Fill 1</title>
    <defs>
        <rect id="path-1" x="0" y="0" width="18" height="18"></rect>
    </defs>
    <g id="页面-1" stroke="none" stroke-width="1" fill="none" fill-rule="evenodd">
        <g id="首页" transform="translate(-39.000000, -423.000000)">
            <g id="Fill-1" transform="translate(39.000000, 423.000000)">
                <mask id="mask-2" fill="white">
                    <use xlink:href="#path-1"></use>
                </mask>
                <g id="蒙版"></g>
                <path d="M1.15728374,8.84067029 C1.07868987,8.92304751 1,9.04667372 1,9.21148854 C1,9.33513487 1.03930653,9.4587812 1.15728374,9.58240741 L3.5954985,12.2197263 C3.67418837,12.2609954 3.79208877,12.3433726 3.94946852,12.3433726 C4.06736891,12.3433726 4.22474866,12.302184 4.30334252,12.1785377 L6.85953449,9.5412188 C6.93814755,9.4587812 7.01683743,9.33513487 7.01683743,9.17032005 C7.01683743,9.00548511 6.97753089,8.8818589 6.85953449,8.79948167 L4.30334252,6.20327094 C4.22474866,6.12089371 4.10675225,6.038436 3.94946852,6.038436 C3.83147211,6.038436 3.7134757,6.0797051 3.5954985,6.20327094 L1.15728374,8.84067029 Z M15,2.53573369 C15,2.41208736 14.9606167,2.28846115 14.8426395,2.16481482 C14.7640264,2.08245771 14.6067234,2 14.4887462,2 L10.5954601,2 C10.4774637,2 10.3595633,2.04118861 10.2415669,2.16481482 C10.1628962,2.24727254 10.0842831,2.41208736 10.0842831,2.53573369 L10.0842831,3.56593197 L7.88196519,3.56593197 C7.76406479,3.56593197 7.64606839,3.60712058 7.52809118,3.73076691 C7.44940131,3.8132045 7.37078824,3.97803945 7.37078824,4.10166565 L7.37078824,14.4038496 C7.37078824,14.527496 7.41009478,14.6510417 7.52809118,14.774688 C7.60668505,14.8571457 7.76406479,14.9395028 7.88196519,14.9395028 L10.0842831,14.9395028 L10.0842831,16.4642663 C10.0842831,16.5878925 10.1235897,16.7115388 10.2415669,16.8351651 C10.32018,16.9175423 10.4774637,17 10.5954601,17 L14.4887462,17 C14.6067234,17 14.7247199,16.9588114 14.8426395,16.8351651 C14.9213101,16.7527275 15,16.5878925 15,16.4642663 L15,13.1263788 C15,13.0027325 14.9606167,12.8791063 14.8426395,12.75546 C14.7640264,12.6731028 14.6067234,12.5906451 14.4887462,12.5906451 L10.5954601,12.5906451 C10.4774637,12.5906451 10.3595633,12.6318337 10.2415669,12.75546 C10.1628962,12.8379177 10.0842831,13.0027325 10.0842831,13.1263788 L10.0842831,13.3735709 L9.10108217,13.3735709 C8.98308576,13.3735709 8.86518537,13.3323823 8.74718896,13.2087561 C8.66849909,13.1263788 8.58990522,12.961564 8.58990522,12.8379177 L8.58990522,5.33788749 C8.58990522,5.21424116 8.62919256,5.09069544 8.74718896,4.96704911 C8.82580203,4.88459139 8.98308576,4.80223429 9.10108217,4.80223429 L10.0842831,4.80223429 L10.0842831,5.83243256 C10.0842831,5.95605877 10.1235897,6.0797051 10.2415669,6.20327094 C10.32018,6.28570854 10.4774637,6.36816625 10.5954601,6.36816625 L14.4887462,6.36816625 C14.6067234,6.36816625 14.7247199,6.32689715 14.8426395,6.20327094 C14.9213101,6.12089371 15,5.95605877 15,5.83243256 L15,2.53573369 Z" fill="currentColor" mask="url(#mask-2)"></path>
            </g>
        </g>
    </g>
</svg>