<?xml version="1.0" encoding="UTF-8"?>
<svg width="18px" height="18px" viewBox="0 0 18 18" version="1.1" xmlns="http://www.w3.org/2000/svg" xmlns:xlink="http://www.w3.org/1999/xlink">
    <title>xitongguanli</title>
    <defs>
        <rect id="path-1" x="0" y="0" width="18" height="18"></rect>
    </defs>
    <g id="页面-1" stroke="none" stroke-width="1" fill="none" fill-rule="evenodd">
        <g id="首页" transform="translate(-39.000000, -520.000000)">
            <g id="xitongguanli" transform="translate(39.000000, 520.000000)">
                <mask id="mask-2" fill="white">
                    <use xlink:href="#path-1"></use>
                </mask>
                <g id="蒙版"></g>
                <path d="M15.8314587,10.5352265 C14.9612327,9.0812208 15.4845952,7.21795681 17,6.37133468 L15.3702495,3.64801104 C14.9046064,3.91137074 14.3631851,4.06236702 13.7854841,4.06236702 C12.0438375,4.06236702 10.6319674,2.69129113 10.6319674,1 L7.37230436,1 C7.37665711,1.52201236 7.24158015,2.05125128 6.95188946,2.53519719 C6.08174439,3.98920287 4.14744308,4.4836566 2.62975054,3.64076494 L1,6.36408858 C1.46920619,6.62149124 1.87536837,6.9983081 2.16426949,7.48094541 C3.03299739,8.93266593 2.51271218,10.7921799 1.00285459,11.6407356 L2.63268611,14.3640398 C3.09664876,14.1031215 3.63545846,13.9538049 4.21014292,13.9538049 C5.9463435,13.9538049 7.35458968,15.3161894 7.36359886,17 L10.6231809,17 C10.6217637,16.4832611 10.7571444,15.9598815 11.0436768,15.4809942 C11.9124047,14.0293518 13.8420293,13.534195 15.3586084,14.3714421 L16.9883589,11.648138 C16.5222503,11.3908721 16.1187605,11.0153443 15.8314587,10.5352265 Z M8.99998988,12.2396426 C7.14541474,12.2396426 5.64187371,10.7892112 5.64187371,9.00004883 C5.64187371,7.21078883 7.14533376,5.7604355 8.99998988,5.7604355 C10.8546662,5.7604355 12.3580453,7.21078883 12.3580453,9.00004883 C12.3579643,10.7892112 10.8545853,12.2396426 8.99998988,12.2396426 Z" fill="currentColor" mask="url(#mask-2)"></path>
            </g>
        </g>
    </g>
</svg>