<?xml version="1.0" encoding="UTF-8"?>
<svg width="18px" height="18px" viewBox="0 0 18 18" version="1.1" xmlns="http://www.w3.org/2000/svg" xmlns:xlink="http://www.w3.org/1999/xlink">
    <title>shouye-tianchong</title>
    <defs>
        <rect id="path-1" x="0" y="0" width="18" height="18"></rect>
    </defs>
    <g id="页面-1" stroke="none" stroke-width="1" fill="none" fill-rule="evenodd">
        <g id="投诉反馈" transform="translate(-39.000000, -81.000000)">
            <g id="shouye-tianchong" transform="translate(39.000000, 81.000000)">
                <mask id="mask-2" fill="white">
                    <use xlink:href="#path-1"></use>
                </mask>
                <g id="蒙版"></g>
                <path d="M16.701234,8.35143503 L9.68301089,2.25160031 C9.29132162,1.91613323 8.70367295,1.91613323 8.34465207,2.25160031 L1.32645448,8.35143503 C1.13059709,8.53440624 1,8.77844729 1,9.02241685 L1,15.7932334 C1,16.311767 1.45705158,16.7387078 2.01192984,16.7387078 L6.90836456,16.7387078 L6.90836456,12.0723342 C6.90836456,11.0049346 7.8550341,10.1204348 8.99756104,10.1204348 C10.1399605,10.1204348 11.0866555,11.0049346 11.0866555,12.0723342 L11.0866555,16.7692308 L15.9830902,16.7692308 C16.538045,16.7692308 16.9949946,16.34229 16.9949946,15.8237564 L16.9949946,9.02241685 C17.027663,8.77844729 16.8970659,8.53440624 16.701234,8.35143503 Z" id="Fill-1" fill="currentColor" mask="url(#mask-2)"></path>
            </g>
        </g>
    </g>
</svg>