<?xml version="1.0" encoding="UTF-8"?>
<svg width="18px" height="18px" viewBox="0 0 18 18" version="1.1" xmlns="http://www.w3.org/2000/svg" xmlns:xlink="http://www.w3.org/1999/xlink">
    <title>Fill 1</title>
    <defs>
        <rect id="path-1" x="0" y="0" width="18" height="18"></rect>
    </defs>
    <g id="页面-1" stroke="none" stroke-width="1" fill="none" fill-rule="evenodd">
        <g id="首页" transform="translate(-39.000000, -130.000000)">
            <g id="Fill-1" transform="translate(39.000000, 130.000000)">
                <mask id="mask-2" fill="white">
                    <use xlink:href="#path-1"></use>
                </mask>
                <g id="蒙版"></g>
                <path d="M2.45471775,1 L15.5468046,1 C15.9325101,1 16.3026035,1.15322381 16.5753941,1.42598903 C16.8481599,1.69882883 17.001398,2.06878826 17.001398,2.45455728 L17.001398,15.5454237 C17.001398,15.9311181 16.8481599,16.301177 16.5753941,16.5739174 C16.3026035,16.8466826 15.9325101,16.9999064 15.5468046,16.9999064 L2.45471775,16.9999064 C2.0688879,16.9999064 1.69889398,16.8466826 1.42602874,16.5739174 C1.15323809,16.301177 1,15.9311181 1,15.5454237 L1,2.45455728 C1,1.6512509 1.65131161,1 2.45471775,1 Z M4.25407204,6.47270497 L3.4999139,7.19047548 L5.60912536,9.49964576 L9.000699,6.27053605 L8.29810086,5.50034033 L5.66001413,8.01302185 L4.25407204,6.47337613 L4.25407204,6.47270497 Z M4.25407204,10.4726816 L3.4999139,11.1904521 L5.60912536,13.4996224 L9.000699,10.2705126 L8.29810086,9.50031692 L5.66001413,12.0129984 L4.25407204,10.4734522 L4.25407204,10.4726816 Z M10.0008485,7.4996326 L14.001198,7.4996326 L14.001198,6.50037176 L10.0008485,6.50037176 L10.0008485,7.4996326 Z M10.0008485,11.5003052 L14.001198,11.5003052 L14.001198,10.5003484 L10.0008485,10.5003484 L10.0008485,11.5003052 Z" fill="currentColor" mask="url(#mask-2)"></path>
            </g>
        </g>
    </g>
</svg>