<?xml version="1.0" encoding="UTF-8"?>
<svg width="18px" height="18px" viewBox="0 0 18 18" version="1.1" xmlns="http://www.w3.org/2000/svg" xmlns:xlink="http://www.w3.org/1999/xlink">
    <title>bg-list</title>
    <defs>
        <rect id="path-1" x="0" y="0" width="18" height="18"></rect>
    </defs>
    <g id="页面-1" stroke="none" stroke-width="1" fill="none" fill-rule="evenodd">
        <g id="首页" transform="translate(-39.000000, -374.000000)">
            <g id="bg-list" transform="translate(39.000000, 374.000000)">
                <mask id="mask-2" fill="white">
                    <use xlink:href="#path-1"></use>
                </mask>
                <g id="蒙版"></g>
                <g mask="url(#mask-2)" fill="currentColor" id="Fill-1">
                    <g transform="translate(3.000000, 2.000000)">
                        <path d="M11.2342245,0 L1.49306379,0 C1.09706055,0 0.717339299,0.173034879 0.437314099,0.481045509 C0.157304436,0.789073229 0,1.20676661 0,1.64237017 L0,12.3576469 C0,13.2646744 0.668477822,14 1.49306379,14 L11.2342245,14 C12.0587949,14 12.7272727,13.2646744 12.7272727,12.3576469 L12.7272727,1.64237017 C12.7272727,0.735325605 12.0587949,0 11.2342245,0 Z M2.46249413,11.2513345 C2.1521888,11.2513345 1.87242771,11.0457264 1.75365315,10.7302987 C1.63487859,10.4149395 1.70055028,10.0519166 1.91999968,9.81059059 C2.13938693,9.56919625 2.46940776,9.49695739 2.756098,9.62760941 C3.04285039,9.75824433 3.22978244,10.0659986 3.22978244,10.4073345 C3.22978244,10.8734947 2.88627616,11.2513345 2.46249413,11.2513345 Z M2.46249413,7.82975565 C2.1521888,7.82975565 1.87242771,7.62407913 1.75365315,7.30871986 C1.63487859,6.99336059 1.70055028,6.63033768 1.91999968,6.38894335 C2.13938693,6.14761737 2.46940776,6.07537851 2.756098,6.20603052 C3.04285039,6.33666545 3.22978244,6.64441973 3.22978244,6.9857556 C3.23256343,7.21158107 3.15294019,7.42915214 3.00874835,7.5898994 C2.8645565,7.75064667 2.66780555,7.84117168 2.46249413,7.84117168 L2.46249413,7.82975565 Z M2.46249413,4.40817677 C2.15030891,4.40805714 1.86932046,4.19983423 1.75189756,3.88167222 C1.63445912,3.56344185 1.70395272,3.19874414 1.92770566,2.9592126 C2.15145859,2.7197665 2.48483524,2.65326984 2.77079529,2.79111669 C3.05669318,2.92898063 3.23821862,3.24367339 3.22978244,3.58700877 C3.22978244,4.05310065 2.88627616,4.43094047 2.46249413,4.43094047 L2.46249413,4.40817677 Z M10.5914125,10.8008628 L4.54138294,10.8008628 C4.37351386,10.8209605 4.20996386,10.733768 4.1202576,10.5763532 C4.03056689,10.4189385 4.03056689,10.2190042 4.1202576,10.0615894 C4.20996386,9.90417469 4.37351386,9.81699929 4.54138294,9.83707988 L10.5914125,9.83707988 C10.7592661,9.81699929 10.9228316,9.90417469 11.0125223,10.0615894 C11.1021664,10.2190042 11.1021664,10.4189385 11.0125223,10.5763532 C10.9228316,10.733768 10.7592661,10.8209605 10.5914125,10.8008628 Z M10.5914125,7.37921555 L4.54138294,7.37921555 C4.3178009,7.35245282 4.14848695,7.1447597 4.14848695,6.89736682 C4.14848695,6.64995685 4.3178009,6.44228081 4.54138294,6.415501 L10.5914125,6.415501 C10.7592661,6.39535205 10.9228316,6.48252744 11.0125223,6.63994219 C11.1021664,6.79735693 11.1021664,6.99735962 11.0125223,7.15477436 C10.9228316,7.3121891 10.7592661,7.39938159 10.5914125,7.37921555 Z M10.5914125,3.95763667 L4.54138294,3.95763667 C4.37351386,3.97773435 4.20996386,3.89054186 4.1202576,3.73312712 C4.03056689,3.57571237 4.03056689,3.37577805 4.1202576,3.2183633 C4.20996386,3.06094856 4.37351386,2.97377316 4.54138294,2.99387084 L10.5914125,2.99387084 C10.7592661,2.97377316 10.9228316,3.06094856 11.0125223,3.2183633 C11.1021664,3.37577805 11.1021664,3.57571237 11.0125223,3.73312712 C10.9228316,3.89054186 10.7592661,3.97773435 10.5914125,3.95763667 Z"></path>
                    </g>
                </g>
            </g>
        </g>
    </g>
</svg>