<?xml version="1.0" encoding="UTF-8"?>
<svg width="18px" height="18px" viewBox="0 0 18 18" version="1.1" xmlns="http://www.w3.org/2000/svg" xmlns:xlink="http://www.w3.org/1999/xlink">
    <title>zixuntousu</title>
    <defs>
        <rect id="path-1" x="0" y="0" width="18" height="18"></rect>
    </defs>
    <g id="页面-1" stroke="none" stroke-width="1" fill="none" fill-rule="evenodd">
        <g id="首页" transform="translate(-39.000000, -326.000000)">
            <g id="zixuntousu" transform="translate(39.000000, 326.000000)">
                <mask id="mask-2" fill="white">
                    <use xlink:href="#path-1"></use>
                </mask>
                <g id="蒙版"></g>
                <g mask="url(#mask-2)" fill="currentColor">
                    <g transform="translate(1.000000, 3.000000)">
                        <path d="M10.6381626,0 L1.58434383,0 C0.713004355,0 0,0.726169092 0,1.61401481 L0,8.09530735 C0,8.98315307 0.713004355,9.70932216 1.58434383,9.70932216 L2.2275413,9.70932216 L3.53558931,11.9648933 L4.78458771,9.70932216 L10.6383472,9.70932216 C11.5098714,9.70932216 12.222668,8.98296494 12.222668,8.09530735 L12.222668,1.61401481 C12.2225064,0.726169092 11.5096867,0 10.6381626,0 Z M6.10362384,7.75386984 C5.70569691,7.73860756 5.46970625,7.45229296 5.46970625,7.07720319 C5.46970625,6.71692888 5.7497879,6.41608101 6.10362384,6.41608101 C6.47225681,6.41608101 6.75296173,6.71674074 6.75296173,7.07720319 C6.75296173,7.483523 6.47225681,7.75386984 6.10362384,7.75386984 Z M6.71805829,5.79924059 C6.60353715,5.83028251 6.18767373,5.94739517 6.10110765,5.94739517 C6.01426457,5.94739517 5.5900908,5.83028251 5.50424034,5.79924059 C5.2727742,3.87271369 5.14338678,2.14560755 5.14338678,1.90769011 C5.14338678,1.60832379 5.63418179,1.5923325 6.06800479,1.5923325 C6.6181495,1.5923325 7.07930429,1.60813566 7.07930429,1.90769011 C7.07930429,2.14560755 6.89165213,3.87252556 6.71805829,5.79924059 Z" id="Fill-1"></path>
                        <path d="M15.4744129,4.90100054 L13.1621061,4.90100054 L13.1621061,8.90056277 C13.1621061,9.78831442 12.4491017,10.5145776 11.5777623,10.5145776 L8.28688948,10.5145776 C8.3528182,11.0522611 8.80125355,11.4732553 9.34597346,11.4732553 L13.3083681,11.4732553 L14.1538301,13 L15.0391356,11.4732553 L15.4744129,11.4732553 C16.0642395,11.4732553 16.5468396,10.9817113 16.5468396,10.3808387 L16.5468396,5.99351123 C16.5468396,5.3926621 16.0642395,4.90100054 15.4744129,4.90100054 Z" id="Fill-3"></path>
                    </g>
                </g>
            </g>
        </g>
    </g>
</svg>