<?xml version="1.0" encoding="UTF-8"?>
<svg width="18px" height="18px" viewBox="0 0 18 18" version="1.1" xmlns="http://www.w3.org/2000/svg" xmlns:xlink="http://www.w3.org/1999/xlink">
    <title>xitongjiankong</title>
    <defs>
        <rect id="path-1" x="0" y="0" width="18" height="18"></rect>
    </defs>
    <g id="页面-1" stroke="none" stroke-width="1" fill="none" fill-rule="evenodd">
        <g id="首页" transform="translate(-39.000000, -570.000000)">
            <g id="xitongjiankong" transform="translate(39.000000, 570.000000)">
                <mask id="mask-2" fill="white">
                    <use xlink:href="#path-1"></use>
                </mask>
                <g id="蒙版"></g>
                <path d="M14.8731842,15.061507 C15.1510492,15.061507 15.3762588,15.2716057 15.3762588,15.5308025 C15.3762588,15.7899209 15.1510492,16 14.8731842,16 L4.16540873,16 C3.88762784,16 3.66239725,15.7899798 3.66239725,15.5308025 C3.66239725,15.2716057 3.88762784,15.061507 4.16540873,15.061507 L14.8731842,15.061507 Z M4,2 L15,2 C16.1045695,2 17,2.8954305 17,4 L17,11.2 C17,12.3045695 16.1045695,13.2 15,13.2 L4,13.2 C2.8954305,13.2 2,12.3045695 2,11.2 L2,4 C2,2.8954305 2.8954305,2 4,2 Z M13.0865581,5.3215954 L13.0799788,5.32818366 L10.3821934,8.0595644 L8.53093041,6.74408987 L8.52428805,6.73948201 C8.30801203,6.59059921 8.02447162,6.62797187 7.84754527,6.828796 L7.84220616,6.83491367 L5.1590088,9.96782503 L5.15301807,9.9749427 C4.95931766,10.2086297 4.97163545,10.5670817 5.18093279,10.7845334 L5.18734393,10.7910432 L5.19381812,10.797553 C5.4095266,11.0074948 5.74034125,10.9941026 5.94093626,10.767298 L5.94694802,10.7603372 L8.3211496,7.98827007 L10.1458642,9.28484259 L10.1520231,9.28919555 C10.3564858,9.43013715 10.6228528,9.40539197 10.8020914,9.22876399 L10.8075146,9.2233326 L13.8138752,6.17951955 L13.8203705,6.17285286 C14.0310551,5.95249926 14.040346,5.58890993 13.839751,5.35612492 C13.6390719,5.12343795 13.3037379,5.10881045 13.0865581,5.32167383 L13.0865581,5.3215954 Z" fill="currentColor" mask="url(#mask-2)"></path>
            </g>
        </g>
    </g>
</svg>