<?xml version="1.0" encoding="UTF-8"?>
<svg width="29px" height="29px" viewBox="0 0 29 29" version="1.1" xmlns="http://www.w3.org/2000/svg" xmlns:xlink="http://www.w3.org/1999/xlink">
    <title>morentouxiang备份</title>
    <defs>
        <polygon id="path-1" points="0 0 29 0 29 29 0 29"></polygon>
    </defs>
    <g id="页面-1" stroke="none" stroke-width="1" fill="none" fill-rule="evenodd">
        <g id="登录页备份-5" transform="translate(-328.000000, -352.000000)">
            <g id="morentouxiang备份" transform="translate(328.000000, 352.000000)">
                <mask id="mask-2" fill="white">
                    <use xlink:href="#path-1"></use>
                </mask>
                <g id="Clip-2"></g>
                <path d="M20.1252316,12.2002355 L11.6878344,12.2002355 L11.6878344,9.19979287 C11.6878344,8.20597611 12.9473025,7.10018458 14.4996998,7.10018458 C16.0524887,7.10018458 17.3134967,8.20597611 17.3134967,9.19979287 L17.3134967,10.1003266 L17.3244852,10.1003266 C17.4013781,10.6167284 17.8621095,11.000284 18.4055281,11.000284 C18.9577428,11.000284 19.412471,10.6092868 19.4885287,10.1003266 L19.5009527,10.1003266 L19.5009527,9.19989309 C19.5009527,6.88044444 17.2608775,5 14.4998042,5 C11.7390181,5 9.49967374,6.88044444 9.49967374,9.19989309 L9.49967374,12.2002355 L8.87416804,12.2002355 C7.83940177,12.2002355 7,13.0061331 7,14.0000501 L7,21.2004861 C7,22.1943028 7.83940177,23 8.87416804,23 L20.1252316,23 C21.1612246,23 22,22.1943028 22,21.2004861 L22,14.0000501 C22,13.0061331 21.1612246,12.2002355 20.1252316,12.2002355 Z M15.4379975,18.845433 L15.4379975,19.6661136 C15.4379975,20.1815132 15.0178529,20.5990445 14.4996998,20.5990445 C13.9827735,20.5990445 13.5620025,20.1815132 13.5620025,19.6661136 L13.5620025,18.8455332 C12.8235325,18.5133423 12.3114087,17.7997255 12.3114087,16.972781 C12.3114087,15.8278521 13.2920158,14.8995064 14.4996998,14.8995064 C15.7085846,14.8995064 16.6878866,15.8278521 16.6878866,16.972781 C16.6878866,17.7996253 16.1770939,18.5133423 15.4379975,18.8455332 L15.4379975,18.845433 Z" id="mima" fill="#C9C9C9" mask="url(#mask-2)"></path>
            </g>
        </g>
    </g>
</svg>