<?xml version="1.0" encoding="UTF-8"?>
<svg width="15px" height="15px" viewBox="0 0 15 15" version="1.1" xmlns="http://www.w3.org/2000/svg" xmlns:xlink="http://www.w3.org/1999/xlink">
    <title>预览</title>
    <defs>
        <polygon id="path-1" points="0 0 15 0 15 15 0 15"></polygon>
    </defs>
    <g id="页面-1" stroke="none" stroke-width="1" fill="none" fill-rule="evenodd">
        <g id="表单编辑" transform="translate(-1055.000000, -15.000000)">
            <g id="预览" transform="translate(1055.000000, 15.000000)">
                <mask id="mask-2" fill="white">
                    <use xlink:href="#path-1"></use>
                </mask>
                <g id="Clip-2"></g>
                <path d="M7.5,3 C3,3 0,8 0,8 C0,8 3,13 7.5,13 C12,13 15,8 15,8 C15,8 11.9977938,3 7.5,3 Z M7.5,11.2965302 C5.851983,11.2965302 4.51545044,9.81151301 4.51545044,7.9803613 C4.51545044,6.1492096 5.8519648,4.66419245 7.5,4.66419245 C9.148017,4.66419245 10.4845496,6.1492096 10.4845496,7.9803613 C10.4823288,9.81394004 9.1480352,11.2965302 7.5,11.2965302 Z M5.99998908,7.99019076 C5.99998908,8.42466912 6.16126492,8.85665976 6.43739973,9.1634967 C6.71353455,9.47033364 7.10234402,9.64950893 7.49337422,9.64950893 C7.88440442,9.64950893 8.27319569,9.47031341 8.54934871,9.1634967 C8.82548352,8.85667999 8.98675936,8.42466912 8.98675936,7.99019076 C8.98675936,7.55571241 8.82548352,7.12372177 8.54934871,6.81688483 C8.27321389,6.51006812 7.88440442,6.3308726 7.49337422,6.3308726 C7.10234402,6.3308726 6.71355275,6.51006812 6.43739973,6.81688483 C6.16126492,7.12616902 5.99998908,7.55571241 5.99998908,7.99019076 L5.99998908,7.99019076 Z" id="形状" fill="currentColor" fill-rule="nonzero" mask="url(#mask-2)"></path>
            </g>
        </g>
    </g>
</svg>