<?xml version="1.0" encoding="UTF-8"?>
<svg width="19px" height="18px" viewBox="0 0 19 18" version="1.1" xmlns="http://www.w3.org/2000/svg" xmlns:xlink="http://www.w3.org/1999/xlink">
    <title>hollow-question</title>
    <defs>
        <polygon id="path-1" points="0 0 18 0 18 18 0 18"></polygon>
    </defs>
    <g id="页面-1" stroke="none" stroke-width="1" fill="none" fill-rule="evenodd">
        <g id="首页" transform="translate(-1154.000000, -28.000000)">
            <g id="hollow-question" transform="translate(1154.666667, 28.000000)">
                <mask id="mask-2" fill="white">
                    <use xlink:href="#path-1"></use>
                </mask>
                <g id="Clip-2"></g>
                <path d="M9,18.0014064 C4.02942187,18.0014064 0,13.9716697 0,9.00070318 C0,4.0297367 4.02942187,0 9,0 C13.9705781,0 18,4.0297367 18,9.00070318 C18,13.9716697 13.9705781,18.0014064 9,18.0014064 Z M9,16.3137745 C13.0385625,16.3137745 16.3125,13.0395812 16.3125,9.00070318 C16.3125,4.96182514 13.0385625,1.68763185 9,1.68763185 C4.9614375,1.68763185 1.6875,4.96182514 1.6875,9.00070318 C1.6875,13.0395812 4.9614375,16.3137745 9,16.3137745 Z M9.156,3.88160013 C10.0920469,3.88160013 10.8552188,4.12633018 11.4311719,4.64483163 C12.0072422,5.14887101 12.2951719,5.84014376 12.2951719,6.71857958 C12.2951719,7.43858895 12.1080234,8.02907258 11.7624141,8.48988984 C11.6327813,8.63392453 11.2152188,9.02275959 10.5239766,9.62761153 C10.2648047,9.84360497 10.0775859,10.0884288 9.94802344,10.3476443 C9.80402344,10.6356903 9.73195313,10.9381045 9.73195313,11.2837409 L9.73195313,11.485366 L8.07595313,11.485366 L8.07595313,11.2837409 C8.07595313,10.7365029 8.16239063,10.2612001 8.36397656,9.87243535 C8.55121875,9.48360028 9.11278125,8.87874834 10.0488281,8.04344089 L10.2215859,7.84183921 C10.4807813,7.52503321 10.6104141,7.17939683 10.6104141,6.81939214 C10.6104141,6.34418314 10.4663906,5.96971638 10.2072188,5.69613251 C9.9335625,5.42245488 9.54482813,5.29288226 9.05519531,5.29288226 C8.4215625,5.29288226 7.97514844,5.48004532 7.70160938,5.88327213 C7.45678125,6.2145402 7.34160938,6.68972576 7.34160938,7.2945777 L5.69997656,7.2945777 C5.69997656,6.22890851 6.00239063,5.39369482 6.63602344,4.78886632 C7.25519531,4.18401438 8.09041406,3.88160013 9.156,3.88160013 Z M9,14.2105263 C9.52321713,14.2105263 9.94736842,13.786375 9.94736842,13.2631579 C9.94736842,12.7399408 9.52321713,12.3157895 9,12.3157895 C8.47678287,12.3157895 8.05263158,12.7399408 8.05263158,13.2631579 C8.05263158,13.786375 8.47678287,14.2105263 9,14.2105263 Z" id="Fill-1" fill="currentColor" mask="url(#mask-2)"></path>
            </g>
        </g>
    </g>
</svg>