<?xml version="1.0" encoding="UTF-8"?>
<svg width="18px" height="18px" viewBox="0 0 18 18" version="1.1" xmlns="http://www.w3.org/2000/svg" xmlns:xlink="http://www.w3.org/1999/xlink">
    <title>复选框_选中</title>
    <defs>
        <rect id="path-1" x="0" y="0" width="18" height="18"></rect>
    </defs>
    <g id="页面-1" stroke="none" stroke-width="1" fill="none" fill-rule="evenodd">
        <g id="表单编辑" transform="translate(-35.000000, -127.000000)">
            <g id="复选框_选中" transform="translate(35.000000, 127.000000)">
                <mask id="mask-2" fill="white">
                    <use xlink:href="#path-1"></use>
                </mask>
                <g id="蒙版"></g>
                <g mask="url(#mask-2)" fill="currentColor" fill-rule="nonzero">
                    <g transform="translate(3.000000, 3.000000)">
                        <path d="M6.5,0.8125 C7.26806641,0.8125 8.01328125,0.962304687 8.7140625,1.259375 C9.39072266,1.54628906 10.0000977,1.95634766 10.521875,2.478125 C11.0449219,3.00117188 11.4549805,3.60927734 11.740625,4.2859375 C12.0376953,4.98671875 12.1875,5.73193359 12.1875,6.5 C12.1875,7.26806641 12.0376953,8.01328125 11.740625,8.7140625 C11.4537109,9.39072266 11.0436523,10.0000977 10.521875,10.521875 C9.99882812,11.0449219 9.39072266,11.4549805 8.7140625,11.740625 C8.01328125,12.0376953 7.26806641,12.1875 6.5,12.1875 C5.73193359,12.1875 4.98671875,12.0376953 4.2859375,11.740625 C3.60927734,11.4537109 2.99990234,11.0436523 2.478125,10.521875 C1.95507813,9.99882812 1.54501953,9.39072266 1.259375,8.7140625 C0.962304687,8.01328125 0.8125,7.26806641 0.8125,6.5 C0.8125,5.73193359 0.962304687,4.98671875 1.259375,4.2859375 C1.54628906,3.60927734 1.95634766,2.99990234 2.478125,2.478125 C2.99990234,1.95634766 3.60927734,1.54501953 4.2859375,1.259375 C4.98671875,0.962304687 5.73193359,0.8125 6.5,0.8125 M6.5,0 C2.90976562,0 0,2.90976562 0,6.5 C0,10.0902344 2.90976562,13 6.5,13 C10.0902344,13 13,10.0902344 13,6.5 C13,2.90976563 10.0902344,0 6.5,0 Z" id="形状"></path>
                        <path d="M3.28808594,6.5 C3.28808594,8.27389115 4.72610885,9.71191406 6.5,9.71191406 C8.27389115,9.71191406 9.71191406,8.27389115 9.71191406,6.5 C9.71191406,4.72610885 8.27389115,3.28808594 6.5,3.28808594 C4.72610885,3.28808594 3.28808594,4.72610885 3.28808594,6.5 L3.28808594,6.5 Z" id="路径"></path>
                    </g>
                </g>
            </g>
        </g>
    </g>
</svg>