<?xml version="1.0" encoding="UTF-8"?>
<svg width="18px" height="18px" viewBox="0 0 18 18" version="1.1" xmlns="http://www.w3.org/2000/svg" xmlns:xlink="http://www.w3.org/1999/xlink">
    <title>评分-星</title>
    <defs>
        <rect id="path-1" x="0" y="0" width="18" height="18"></rect>
    </defs>
    <g id="页面-1" stroke="none" stroke-width="1" fill="none" fill-rule="evenodd">
        <g id="表单编辑" transform="translate(-35.000000, -226.000000)">
            <g id="评分-星" transform="translate(35.000000, 226.000000)">
                <mask id="mask-2" fill="white">
                    <use xlink:href="#path-1"></use>
                </mask>
                <g id="蒙版"></g>
                <g mask="url(#mask-2)" fill="currentColor" fill-rule="nonzero" id="路径">
                    <g transform="translate(4.000000, 4.000000)">
                        <path d="M5.79725112,9.3662347 L8.24380773,10.9115176 C8.67956781,11.18673 9.21858028,10.7783404 9.10249426,10.2587661 L8.45527096,7.34505724 C8.40728429,7.12727145 8.47808759,6.89953928 8.63931688,6.75309081 L10.8000335,4.79392016 C11.1853341,4.4444828 10.979996,3.78256779 10.472776,3.7364445 L7.62429339,3.48078098 C7.41165051,3.46193305 7.22647408,3.3212821 7.14332394,3.1154601 L6.03146487,0.367917223 C5.83254361,-0.122639074 5.16898659,-0.122639074 4.97123201,0.367917223 L3.85937296,3.1154601 C3.77622282,3.3212821 3.59104639,3.46193306 3.37840349,3.48078098 L0.527295865,3.7352227 C0.0197841237,3.78134599 -0.185262287,4.44326099 0.200038287,4.79239289 L2.36075495,6.75156355 C2.52205035,6.89818062 2.59263532,7.12604799 2.5445092,7.34352998 L1.89728589,10.2575443 C1.78149155,10.7768131 2.32050402,11.1855082 2.7562641,10.9099903 L5.20282071,9.3662347 C5.38578798,9.25138023 5.61428385,9.25138023 5.79725112,9.3662347 L5.79725112,9.3662347 Z"></path>
                    </g>
                </g>
            </g>
        </g>
    </g>
</svg>