<?xml version="1.0" encoding="UTF-8"?>
<svg width="15px" height="15px" viewBox="0 0 15 15" version="1.1" xmlns="http://www.w3.org/2000/svg" xmlns:xlink="http://www.w3.org/1999/xlink">
    <title>发布管理</title>
    <defs>
        <polygon id="path-1" points="0 0 15 0 15 15 0 15"></polygon>
    </defs>
    <g id="页面-1" stroke="none" stroke-width="1" fill="none" fill-rule="evenodd">
        <g id="表单编辑" transform="translate(-1183.000000, -15.000000)">
            <g id="发布管理" transform="translate(1183.000000, 15.000000)">
                <mask id="mask-2" fill="white">
                    <use xlink:href="#path-1"></use>
                </mask>
                <g id="Clip-2"></g>
                <path d="M13.5372502,4.47214286 L2.46293513,4.47214286 C2.15357437,4.47214286 1.94955628,4.745 2.01089505,5.07857143 L3.38968395,12.1078571 C3.450356,12.4414286 3.7530495,12.7142857 4.06241026,12.7142857 L11.9377751,12.7142857 C12.2471358,12.7142857 12.5498293,12.4414286 12.6105014,12.1078571 L13.9892903,5.07857143 C14.0499623,4.745 13.846611,4.47214286 13.5372502,4.47214286 Z M9.87425882,9.25642857 L8.37479256,7.65357143 L8.37479256,11.4792857 L7.62539279,11.4792857 L7.62539279,7.65357143 L6.12592652,9.25642857 L6.12592652,7.71142857 L8.00009267,5.70714286 L9.87425882,7.71071429 L9.87425882,9.25642857 Z M12.500532,3.44214286 C12.504197,3.10512092 12.2523528,2.82859859 11.9377751,2.82428571 L6.87465957,2.82428571 L6.49995968,2 L4.06174353,2 C3.74742745,2.00470318 3.49598648,2.28111035 3.49965323,2.61785714 L3.49965323,4.06 L12.500532,4.06 L12.500532,3.44214286 L12.500532,3.44214286 Z" id="形状" fill="currentColor" fill-rule="nonzero" mask="url(#mask-2)"></path>
            </g>
        </g>
    </g>
</svg>