<?xml version="1.0" encoding="UTF-8"?>
<svg width="15px" height="15px" viewBox="0 0 15 15" version="1.1" xmlns="http://www.w3.org/2000/svg" xmlns:xlink="http://www.w3.org/1999/xlink">
    <title>保存</title>
    <defs>
        <polygon id="path-1" points="0 0 15 0 15 15 0 15"></polygon>
    </defs>
    <g id="页面-1" stroke="none" stroke-width="1" fill="none" fill-rule="evenodd">
        <g id="表单编辑" transform="translate(-1119.000000, -15.000000)">
            <g id="保存" transform="translate(1119.000000, 15.000000)">
                <mask id="mask-2" fill="white">
                    <use xlink:href="#path-1"></use>
                </mask>
                <g id="Clip-2"></g>
                <g id="编组" mask="url(#mask-2)" fill="currentColor" fill-rule="nonzero">
                    <g transform="translate(1.000000, 2.000000)" id="路径">
                        <path d="M6.22810342,6.93497378 C6.26961486,6.97695643 6.32441458,7.00021831 6.38128686,7 C6.43813265,6.99988806 6.49279053,6.97632208 6.53407625,6.93412267 L9.72318687,3.67602326 C9.74539375,3.65330585 9.75258898,3.61829447 9.74136608,3.58756473 C9.7299763,3.55703304 9.70254444,3.53704385 9.67206443,3.53706564 L7.60375957,3.54288155 L7.5957996,0.240297541 C7.59573173,0.176475684 7.57202608,0.115335079 7.52996566,0.0705014299 C7.48804056,0.0251700954 7.43109145,-0.00020848862 7.37176454,0 L5.35739307,0.00564697547 C5.29805644,0.0057807566 5.24122342,0.0314849633 5.1995072,0.077054964 C5.15766141,0.122123818 5.13424894,0.183397386 5.13448765,0.247219889 L5.14242135,3.5498039 L3.07411649,3.5556198 C3.04364358,3.55575851 3.01631157,3.57589674 3.00507754,3.60648771 C2.99401534,3.63729092 3.00138606,3.67226262 3.02370334,3.69486112 L6.22810342,6.93497378 L6.22810342,6.93497378 Z"></path>
                        <path d="M12.5708072,7.24302817 L10.6017524,6 L9.37124087,6 L11.4355263,7.51960182 L9.16625195,7.49247973 C9.10052309,7.49247973 9.00592292,7.55018885 8.97613214,7.59810056 L8.34579712,8.98495946 L4.65439401,8.98495946 L4.02403272,7.59810056 C3.99450464,7.55018885 3.89990448,7.49247973 3.83391291,7.49247973 L1.57803649,7.49247973 L3.62892399,6 L2.39812353,6 L0.429383963,7.24309986 C0.121861174,7.4108267 -0.0628206312,7.79703573 0.0196688236,8.10218913 L0.384618985,9.92321656 C0.467476227,10.2280354 0.833424669,10.4772002 1.19808585,10.4772002 L11.8020527,10.4772002 C12.1664249,10.4772002 12.5326624,10.2280354 12.6155196,9.92321656 L12.9801808,8.10218913 C13.0629855,7.79703573 12.8786189,7.41075501 12.5708072,7.24302817 Z"></path>
                    </g>
                </g>
            </g>
        </g>
    </g>
</svg>