<?xml version="1.0" encoding="UTF-8"?>
<svg width="18px" height="18px" viewBox="0 0 18 18" version="1.1" xmlns="http://www.w3.org/2000/svg" xmlns:xlink="http://www.w3.org/1999/xlink">
    <title>滑块</title>
    <defs>
        <rect id="path-1" x="0" y="0" width="18" height="18"></rect>
    </defs>
    <g id="页面-1" stroke="none" stroke-width="1" fill="none" fill-rule="evenodd">
        <g id="表单编辑" transform="translate(-150.000000, -194.000000)">
            <g id="滑块" transform="translate(150.000000, 194.000000)">
                <mask id="mask-2" fill="white">
                    <use xlink:href="#path-1"></use>
                </mask>
                <g id="蒙版"></g>
                <g mask="url(#mask-2)" fill-rule="nonzero">
                    <g transform="translate(2.000000, 6.000000)">
                        <path d="M1.1247576,1.90172299 L13.8752424,1.90172299 C14.6250808,1.90172299 15,2.26938944 15,3.00472233 L15,2.99521371 C15,3.7305466 14.6250808,4.09821305 13.8752424,4.09821305 L1.1247576,4.09821305 C0.374919198,4.09821305 0,3.7305466 0,2.99521371 L0,3.00472233 C0,2.26938944 0.374919198,1.90172299 1.1247576,1.90172299 L1.1247576,1.90172299 Z" id="路径" fill="#323333"></path>
                        <path d="M3.84938591,0.456413518 L6.86489981,0.456413518 C7.51131222,0.456413518 7.83451842,0.77336735 7.83451842,1.40727501 L7.83451842,4.59266103 C7.83451842,5.22656869 7.51131222,5.54352252 6.86489981,5.54352252 L3.84938591,5.54352252 C3.2029735,5.54352252 2.87976729,5.22656869 2.87976729,4.59266103 L2.87976729,1.40727501 C2.87976729,0.77336735 3.2029735,0.456413518 3.84938591,0.456413518 Z" id="路径" fill="#FFFFFF"></path>
                        <path d="M6.86489981,5.99996843 L3.84938591,5.99996843 C3.46968521,6.00246913 3.10464862,5.8563239 2.83524486,5.59391679 C2.5658411,5.33150969 2.41435036,4.97453371 2.41435036,4.60216964 L2.41435036,1.40727501 C2.41435036,0.630058485 3.05683766,0 3.84938591,0 L6.86489981,0 C7.65524784,0.0051845139 8.29464857,0.632216138 8.29993536,1.40727501 L8.29993536,4.60216964 C8.29460578,5.37567026 7.65367685,5.99996843 6.86489981,5.99996843 L6.86489981,5.99996843 Z M3.84938591,0.912827036 C3.57092301,0.912827036 3.34518422,1.13419894 3.34518422,1.40727501 L3.34518422,4.60216964 C3.34518422,4.73244811 3.39858712,4.85725752 3.49343268,4.94847963 C3.58827824,5.03970175 3.71656305,5.08966349 3.84938591,5.087109 L6.86489981,5.087109 C6.99772267,5.08966349 7.12600748,5.03970175 7.22085303,4.94847963 C7.31569859,4.85725752 7.3691015,4.73244811 7.3691015,4.60216964 L7.3691015,1.40727501 C7.3691015,1.13419894 7.14336271,0.912827036 6.86489981,0.912827036 L3.84938591,0.912827036 Z" id="形状" fill="currentColor"></path>
                    </g>
                </g>
            </g>
        </g>
    </g>
</svg>