<?xml version="1.0" encoding="UTF-8"?>
<svg width="18px" height="18px" viewBox="0 0 18 18" version="1.1" xmlns="http://www.w3.org/2000/svg" xmlns:xlink="http://www.w3.org/1999/xlink">
    <title>开关</title>
    <defs>
        <rect id="path-1" x="0" y="0" width="18" height="18"></rect>
    </defs>
    <g id="页面-1" stroke="none" stroke-width="1" fill="none" fill-rule="evenodd">
        <g id="表单编辑" transform="translate(-35.000000, -160.000000)">
            <g id="开关" transform="translate(35.000000, 160.000000)">
                <mask id="mask-2" fill="white">
                    <use xlink:href="#path-1"></use>
                </mask>
                <g id="蒙版"></g>
                <g mask="url(#mask-2)" fill="currentColor" fill-rule="nonzero" id="形状">
                    <g transform="translate(3.000000, 5.000000)">
                        <path d="M3.97959184,0 C1.79081633,0 0,1.80006723 0,4 C0,6.19993277 1.79081633,8 3.97959184,8 L9.02040816,8 C11.2091837,8 13,6.19993277 13,4 C13,1.80006723 11.2091837,0 9.02040816,0 L3.97959184,0 Z M8.68742857,7.56860504 C6.75456372,7.56860504 5.18742857,6.00159029 5.18742857,4.06853647 C5.18742857,2.13548265 6.75456372,0.568605042 8.68742857,0.568605042 C10.6202934,0.568605042 12.1874286,2.13561979 12.1874286,4.06867361 C12.1874286,6.00172743 10.6202934,7.56860504 8.68742857,7.56860504 Z"></path>
                    </g>
                </g>
            </g>
        </g>
    </g>
</svg>