<?xml version="1.0" encoding="UTF-8"?>
<svg width="18px" height="18px" viewBox="0 0 18 18" version="1.1" xmlns="http://www.w3.org/2000/svg" xmlns:xlink="http://www.w3.org/1999/xlink">
    <title>表-表格_jurassic</title>
    <defs>
        <rect id="path-1" x="0" y="0" width="18" height="18"></rect>
    </defs>
    <g id="页面-1" stroke="none" stroke-width="1" fill="none" fill-rule="evenodd">
        <g id="表单编辑" transform="translate(-150.000000, -361.000000)">
            <g id="表-表格_jurassic" transform="translate(150.000000, 361.000000)">
                <mask id="mask-2" fill="white">
                    <use xlink:href="#path-1"></use>
                </mask>
                <g id="蒙版"></g>
                <g mask="url(#mask-2)" fill="currentColor" fill-rule="nonzero" id="形状">
                    <g transform="translate(4.000000, 4.000000)">
                        <path d="M11,0 L0,0 L0,2.75 L0.0122767857,2.75 L0.0122767857,4.76339286 L0,4.76339286 L0,5.54910714 L0.0122767857,5.54910714 L0.0122767857,7.51339286 L0,7.51339286 L0,8.29910714 L0.0122767857,8.29910714 L0.0122767857,10.996317 L3.38839286,10.996317 L3.38839286,11 L4.17410714,11 L4.17410714,10.996317 L6.82589286,10.996317 L6.82589286,11 L7.61160714,11 L7.61160714,10.996317 L10.9877232,10.996317 L10.9877232,2.75 L11,2.75 L11,0 Z M6.82589286,4.76339286 L4.17410714,4.76339286 L4.17410714,2.75 L6.82589286,2.75 L6.82589286,4.76339286 Z M6.82589286,7.51339286 L4.17410714,7.51339286 L4.17410714,5.54910714 L6.82589286,5.54910714 L6.82589286,7.51339286 Z M7.61160714,5.54910714 L10.2020089,5.54910714 L10.2020089,7.51339286 L7.61160714,7.51339286 L7.61160714,5.54910714 Z M0.797991071,2.75 L3.38839286,2.75 L3.38839286,4.76339286 L0.797991071,4.76339286 L0.797991071,2.75 Z M0.797991071,5.54910714 L3.38839286,5.54910714 L3.38839286,7.51339286 L0.797991071,7.51339286 L0.797991071,5.54910714 Z M0.797991071,10.2106027 L0.797991071,8.29910714 L3.38839286,8.29910714 L3.38839286,10.2106027 L0.797991071,10.2106027 Z M4.17410714,10.2106027 L4.17410714,8.29910714 L6.82589286,8.29910714 L6.82589286,10.2106027 L4.17410714,10.2106027 Z M7.61160714,10.2106027 L7.61160714,8.29910714 L10.2020089,8.29910714 L10.2020089,10.2106027 L7.61160714,10.2106027 Z M10.2020089,4.76339286 L7.61160714,4.76339286 L7.61160714,2.75 L10.2020089,2.75 L10.2020089,4.76339286 Z"></path>
                    </g>
                </g>
            </g>
        </g>
    </g>
</svg>