<?xml version="1.0" encoding="UTF-8"?>
<svg width="18px" height="18px" viewBox="0 0 18 18" version="1.1" xmlns="http://www.w3.org/2000/svg" xmlns:xlink="http://www.w3.org/1999/xlink">
    <title>单行文本备份</title>
    <defs>
        <rect id="path-1" x="0" y="0" width="18" height="18"></rect>
    </defs>
    <g id="页面-1" stroke="none" stroke-width="1" fill="none" fill-rule="evenodd">
        <g id="表单编辑" transform="translate(-35.000000, -194.000000)">
            <g id="单行文本备份" transform="translate(35.000000, 194.000000)">
                <mask id="mask-2" fill="white">
                    <use xlink:href="#path-1"></use>
                </mask>
                <g id="蒙版"></g>
                <g mask="url(#mask-2)" fill="currentColor" fill-rule="nonzero">
                    <g transform="translate(2.000000, 4.000000)">
                        <path d="M1.85796623,5.81025412 L5.09682211,5.81025412 L5.89025778,8 L7,8 L4.03728005,0 L2.96268495,0 L0,8 L1.10975973,8 L1.85796623,5.81025412 Z M3.33929121,1.58040378 C3.3861657,1.44958687 3.42796417,1.26369944 3.46482663,1.02264402 L3.48992671,1.02264402 C3.53344052,1.28780497 3.57362866,1.47371192 3.61049113,1.58040378 L4.78548657,4.90640347 L2.17432529,4.90640347 L3.33929121,1.58040378 Z" id="形状"></path>
                        <polygon id="路径" points="0.0542413288 9 14 9 14 11.0174844 0.0542413288 11.0174844"></polygon>
                        <polygon id="路径备份-3" points="7.93333333 1 13.1333333 1 13.1333333 2 7.93333333 2"></polygon>
                        <polygon id="路径备份-4" points="7.93333333 4 13.1333333 4 13.1333333 5 7.93333333 5"></polygon>
                        <polygon id="路径备份-5" points="7.93333333 7 13.1333333 7 13.1333333 8 7.93333333 8"></polygon>
                    </g>
                </g>
            </g>
        </g>
    </g>
</svg>