<?xml version="1.0" encoding="UTF-8"?>
<svg width="18px" height="18px" viewBox="0 0 18 18" version="1.1" xmlns="http://www.w3.org/2000/svg" xmlns:xlink="http://www.w3.org/1999/xlink">
    <title>文本文件</title>
    <defs>
        <rect id="path-1" x="0" y="0" width="18" height="18"></rect>
    </defs>
    <g id="页面-1" stroke="none" stroke-width="1" fill="none" fill-rule="evenodd">
        <g id="表单编辑" transform="translate(-38.000000, -594.000000)">
            <g id="文本文件" transform="translate(38.000000, 594.000000)">
                <mask id="mask-2" fill="white">
                    <use xlink:href="#path-1"></use>
                </mask>
                <g id="蒙版"></g>
                <g mask="url(#mask-2)" fill="currentColor" fill-rule="nonzero">
                    <g transform="translate(4.000000, 2.000000)">
                        <path d="M10.9421053,3.9 L10.8842105,3.84090909 C10.8842105,3.78181818 10.8263158,3.78181818 10.8263158,3.72272728 L7.64210527,0.177272727 C7.58421053,0.118181814 7.5263158,0.118181814 7.52631579,0.0590908999 L7.46842106,0 L1.44736841,0 C0.636842101,0 0,0.649999996 0,1.47727272 L0,11.5227273 C0,12.35 0.636842101,13 1.44736841,13 L9.55263159,13 C10.3631579,13 11,12.35 11,11.5227273 L11,4.13636363 C11,4.07727272 11,3.9590909 10.9421053,3.9 Z M7.81578948,2.12727273 L9.08947368,3.54545455 L7.81578948,3.54545455 L7.81578948,2.12727273 L7.81578948,2.12727273 Z M9.55263159,11.8181818 L1.44736841,11.8181818 C1.2736842,11.8181818 1.15789473,11.7 1.15789473,11.5227273 L1.15789473,1.47727272 C1.15789473,1.29999999 1.2736842,1.18181818 1.44736841,1.18181818 L6.65789473,1.18181818 L6.65789473,4.13636363 C6.65789473,4.49090908 6.88947369,4.72727273 7.23684211,4.72727273 L9.84210527,4.72727273 L9.84210527,11.5227273 C9.84210527,11.7 9.7263158,11.8181818 9.55263159,11.8181818 Z" id="形状"></path>
                        <path d="M7.23684211,5.31818182 L3.76315789,5.31818182 C3.41578947,5.31818182 3.18421052,5.55454546 3.18421052,5.9090909 C3.18421052,6.26363635 3.41578947,6.5 3.76315789,6.5 L4.92105263,6.5 L4.92105263,10.0454545 C4.92105263,10.4 5.15263158,10.6363636 5.5,10.6363636 C5.84736842,10.6363636 6.07894737,10.4 6.07894737,10.0454545 L6.07894737,6.5 L7.23684211,6.5 C7.58421053,6.5 7.81578948,6.26363636 7.81578948,5.9090909 C7.81578948,5.55454545 7.58421053,5.31818182 7.23684211,5.31818182 Z" id="路径"></path>
                    </g>
                </g>
            </g>
        </g>
    </g>
</svg>