<?xml version="1.0" encoding="UTF-8"?>
<svg width="18px" height="18px" viewBox="0 0 18 18" version="1.1" xmlns="http://www.w3.org/2000/svg" xmlns:xlink="http://www.w3.org/1999/xlink">
    <title>yangshi</title>
    <defs>
        <polygon id="path-1" points="0 0 18 0 18 18 0 18"></polygon>
    </defs>
    <g id="页面-1" stroke="none" stroke-width="1" fill="none" fill-rule="evenodd">
        <g id="首页" transform="translate(-1261.000000, -27.000000)">
            <g id="yangshi" transform="translate(1261.000000, 27.000000)">
                <mask id="mask-2" fill="white">
                    <use xlink:href="#path-1"></use>
                </mask>
                <g id="Clip-2"></g>
                <path d="M4.1138073,1.15743305 L0.898770538,4.11387953 L3.85637847,7.32874674 L13.7570718,18 L16.9712515,15.1712807 L4.1138073,1.15743305 Z M2.18494785,4.11387953 L3.98503795,2.57130929 L5.78521594,4.37126754 L3.98503795,5.9139037 L2.18494785,4.11387953 Z M6.55655756,14.6574056 L6.04264478,15.8148386 L4.88512694,15.9434887 L5.78521594,16.7148617 L5.5277871,18 L6.55655756,17.4861249 L7.58530603,18 L7.45664655,16.7139169 L8.22796619,15.8138938 L7.07053626,15.6852438 L6.55655756,14.6565487 L6.55655756,14.6574056 Z M2.57017918,9.38611497 L1.79885953,11.1861611 L-0.00131845755,11.4434832 L1.28485886,12.7296542 L1.02743002,14.6583504 L2.57017918,13.7583273 L4.11286241,14.6583504 L3.85543357,12.7296542 L5.14169878,11.4434832 L3.34152079,11.1861611 L2.57017918,9.38611497 Z M14.3997319,0 L13.3709834,2.31392128 L10.9282332,2.69998132 L12.7283233,4.50002747 L12.342235,7.07133676 L14.5285013,5.78516575 L16.7147676,7.07133676 L16.3285914,4.50002747 L18,2.69998132 L15.5572497,2.31392128 L14.3997319,0 Z" id="Fill-1" fill="currentColor" mask="url(#mask-2)"></path>
            </g>
        </g>
    </g>
</svg>