<?xml version="1.0" encoding="UTF-8"?>
<svg width="18px" height="18px" viewBox="0 0 18 18" version="1.1" xmlns="http://www.w3.org/2000/svg" xmlns:xlink="http://www.w3.org/1999/xlink">
    <title>shijian (1)</title>
    <defs>
        <rect id="path-1" x="0" y="0" width="18" height="18"></rect>
        <polygon id="path-3" points="0 0 11 0 11 11 0 11"></polygon>
    </defs>
    <g id="页面-1" stroke="none" stroke-width="1" fill="none" fill-rule="evenodd">
        <g id="表单编辑" transform="translate(-35.000000, -261.000000)">
            <g id="shijian-(1)" transform="translate(35.000000, 261.000000)">
                <mask id="mask-2" fill="white">
                    <use xlink:href="#path-1"></use>
                </mask>
                <g id="蒙版"></g>
                <g mask="url(#mask-2)">
                    <g transform="translate(4.000000, 4.000000)">
                        <mask id="mask-4" fill="white">
                            <use xlink:href="#path-3"></use>
                        </mask>
                        <g id="Clip-2" stroke="none" fill="none"></g>
                        <path d="M5.49950121,0 C2.46447601,0 -0.000920834723,2.46519048 -0.000920834723,5.49996164 C-0.000920834723,8.53480952 2.46447601,11 5.49950121,11 C8.53460316,11 11,8.53480952 11,5.49996164 C11,2.46519048 8.53460316,0 5.49950121,0 Z M7.84703121,7.41515288 L5.21468703,5.89284892 L5.10665777,5.89284892 L5.10665777,2.35717026 L5.89242139,2.35717026 L5.89242139,5.38212 L8.23995139,6.73747525 L7.84703121,7.41515288 Z" id="Fill-1" stroke="none" fill="currentColor" fill-rule="evenodd" mask="url(#mask-4)"></path>
                    </g>
                </g>
            </g>
        </g>
    </g>
</svg>