<?xml version="1.0" encoding="UTF-8"?>
<svg width="29px" height="29px" viewBox="0 0 29 29" version="1.1" xmlns="http://www.w3.org/2000/svg" xmlns:xlink="http://www.w3.org/1999/xlink">
    <title>morentouxiang</title>
    <defs>
        <polygon id="path-1" points="0 0 29 0 29 29 0 29"></polygon>
    </defs>
    <g id="页面-1" stroke="none" stroke-width="1" fill="none" fill-rule="evenodd">
        <g id="首页" transform="translate(-1292.000000, -22.000000)">
            <g id="morentouxiang" transform="translate(1292.000000, 22.000000)">
                <mask id="mask-2" fill="white">
                    <use xlink:href="#path-1"></use>
                </mask>
                <g id="Clip-2"></g>
                <path d="M26,14.5119307 C26,20.8560749 20.8509171,26 14.4987874,26 C8.14730448,26 3,20.8560749 3,14.5119307 C3,9.64221852 6.03125365,5.48191623 10.3122131,3.80996435 C11.6056032,3.28811594 13.0187289,3 14.4990461,3 C15.9812711,3 17.3931358,3.28785728 18.6879162,3.80996435 C22.9684877,5.48191623 26,9.64234785 26,14.5119307 L26,14.5119307 Z M10.0789179,12.0891509 C10.0789179,14.0251955 11.0709157,15.701286 12.512981,16.5217261 C13.1110446,16.8621239 13.7843834,17.0582535 14.4987874,17.0582535 C15.1881967,17.0582535 15.8380282,16.8747336 16.4204417,16.5576153 C17.8965878,15.7528242 18.9205648,14.0562349 18.9205648,12.0895065 C18.9205648,9.35109565 16.9374098,7.12218214 14.4987874,7.12218214 C12.0616849,7.12192348 10.0789179,9.35083699 10.0789179,12.0891509 L10.0789179,12.0891509 Z M14.5455112,25.2555739 C17.9053182,25.2555739 20.9024587,23.7105598 22.8669242,21.2925652 C22.63489,19.3851995 20.7761592,17.7614879 18.1455331,16.9516529 C17.1520155,17.8453587 15.8827472,18.3830178 14.4985288,18.3830178 C13.0835277,18.3830178 11.7883592,17.8162917 10.7851089,16.8838514 C8.22623361,17.6141159 6.35194972,19.1036795 5.9123911,20.8886662 C7.86182095,23.5366427 11.0037241,25.2555739 14.5455112,25.2555739 L14.5455112,25.2555739 Z" id="Fill-1" fill="currentColor" mask="url(#mask-2)"></path>
            </g>
        </g>
    </g>
</svg>