<?xml version="1.0" encoding="UTF-8"?>
<svg width="29px" height="29px" viewBox="0 0 29 29" version="1.1" xmlns="http://www.w3.org/2000/svg" xmlns:xlink="http://www.w3.org/1999/xlink">
    <title>morentouxiang</title>
    <defs>
        <polygon id="path-1" points="0 0 29 0 29 29 0 29"></polygon>
    </defs>
    <g id="页面-1" stroke="none" stroke-width="1" fill="none" fill-rule="evenodd">
        <g id="登录页备份-5" transform="translate(-328.000000, -292.000000)">
            <g id="morentouxiang" transform="translate(328.000000, 292.000000)">
                <mask id="mask-2" fill="white">
                    <use xlink:href="#path-1"></use>
                </mask>
                <g id="Clip-2"></g>
                <path d="M25,15.0103746 C25,20.5270216 20.5225366,25 14.9989456,25 C9.47591694,25 5,20.5270216 5,15.0103746 C5,10.7758422 7.63587274,7.15818802 11.3584462,5.70431683 C12.4831332,5.2505356 13.7119381,5 14.9991705,5 C16.2880619,5 17.5157702,5.25031067 18.6416663,5.70431683 C22.3639023,7.15818802 25,10.7759547 25,15.0103746 L25,15.0103746 Z M11.1555808,12.9036094 C11.1555808,14.5871266 12.0181876,16.0445965 13.2721574,16.7580227 C13.7922127,17.0540208 14.3777247,17.2245683 14.9989456,17.2245683 C15.5984319,17.2245683 16.1635028,17.0649857 16.6699493,16.7892307 C17.9535546,16.0894123 18.8439694,14.6141173 18.8439694,12.9039187 C18.8439694,10.5226919 17.1194867,8.58450621 14.9989456,8.58450621 C12.879726,8.58428129 11.1555808,10.522467 11.1555808,12.9036094 L11.1555808,12.9036094 Z M15.0395749,24.3526729 C17.9611463,24.3526729 20.5673554,23.0091825 22.2755863,20.9065784 C22.0738174,19.2479996 20.4575297,17.8360765 18.1700288,17.1318721 C17.3061004,17.9090076 16.2023888,18.3765372 14.9987207,18.3765372 C13.768285,18.3765372 12.6420515,17.8837319 11.7696599,17.0729143 C9.54455096,17.7079268 7.91473888,19.0031995 7.532514,20.5553619 C9.22767039,22.8579502 11.9597601,24.3526729 15.0395749,24.3526729 L15.0395749,24.3526729 Z" id="Fill-1" fill="#C9C9C9" mask="url(#mask-2)"></path>
            </g>
        </g>
    </g>
</svg>