<?xml version="1.0" encoding="UTF-8"?>
<svg width="19px" height="18px" viewBox="0 0 19 18" version="1.1" xmlns="http://www.w3.org/2000/svg" xmlns:xlink="http://www.w3.org/1999/xlink">
    <title>xiaoxi (2)</title>
    <defs>
        <polygon id="path-1" points="0 0 18 0 18 18 0 18"></polygon>
    </defs>
    <g id="页面-1" stroke="none" stroke-width="1" fill="none" fill-rule="evenodd">
        <g id="首页" transform="translate(-1191.000000, -28.000000)">
            <g id="xiaoxi-(2)" transform="translate(1191.333333, 28.000000)">
                <mask id="mask-2" fill="white">
                    <use xlink:href="#path-1"></use>
                </mask>
                <g id="Clip-2"></g>
                <path d="M11.0436552,15.9544655 C11.0436552,17.0845816 10.1284079,18 8.99850306,18 C7.86862902,18 6.95338172,17.0845816 6.95338172,15.9544655 L0.817986861,15.9544655 C0.11499182,15.9544655 -0.259988209,15.127844 0.201243394,14.5973763 L2.25626347,12.2507839 C2.5720978,11.8905693 2.8631082,11.115733 2.8631082,10.6370814 L2.8631082,6.13654168 C2.8631082,2.74875343 5.60894263,0 8.99850306,0 C12.3856582,0 15.1338979,2.74622431 15.1338979,6.13654168 L15.1338979,10.6346757 C15.1338979,11.115733 15.4249392,11.8881327 15.7407735,12.2483782 L17.7957627,14.5948472 C18.2595538,15.1229091 17.8821376,15.9519364 17.1790193,15.9519364 L11.0436552,15.9544655 Z M14.5072865,13.3265547 C13.9300455,12.6677804 13.4957964,11.5130825 13.4957964,10.6346757 L13.4957964,6.13654168 C13.4957964,3.65174211 11.4827149,1.63587856 8.99609776,1.63587856 C6.50935726,1.63587856 4.49627574,3.64933636 4.49627574,6.13654168 L4.49627574,10.6346757 C4.49627574,11.5105534 4.06215001,12.6677804 3.48478562,13.3265547 L2.62134476,14.3184636 L15.3756614,14.3184636 L14.5072865,13.3265547 Z" id="Fill-1" fill="currentColor" mask="url(#mask-2)"></path>
            </g>
        </g>
    </g>
</svg>